<svg width="133" height="51" viewBox="0 0 133 51" fill="none" xmlns="http://www.w3.org/2000/svg">
<rect x="0.5" y="0.5" width="132" height="50" rx="9.5" stroke="white"/>
<path d="M34.5599 33.2534C34.1828 34.1165 33.7366 34.9111 33.2195 35.6415C32.5147 36.6374 31.9376 37.3267 31.4928 37.7095C30.8034 38.3378 30.0647 38.6595 29.2737 38.6778C28.7058 38.6778 28.021 38.5177 27.2239 38.1929C26.4241 37.8696 25.6891 37.7095 25.0171 37.7095C24.3123 37.7095 23.5563 37.8696 22.7478 38.1929C21.938 38.5177 21.2857 38.687 20.7869 38.7038C20.0284 38.7358 19.2723 38.4049 18.5176 37.7095C18.036 37.2931 17.4335 36.5794 16.7117 35.5683C15.9373 34.4886 15.3007 33.2366 14.8019 31.8092C14.2678 30.2674 14 28.7744 14 27.329C14 25.6733 14.361 24.2453 15.0842 23.0486C15.6525 22.0874 16.4086 21.3292 17.3548 20.7726C18.3011 20.2159 19.3236 19.9323 20.4247 19.9141C21.0271 19.9141 21.8172 20.0988 22.799 20.4618C23.7781 20.8259 24.4067 21.0106 24.6824 21.0106C24.8884 21.0106 25.5868 20.7947 26.7707 20.3642C27.8902 19.9649 28.8351 19.7996 29.6092 19.8647C31.7067 20.0325 33.2826 20.8519 34.3306 22.3281C32.4546 23.4544 31.5267 25.0321 31.5451 27.0559C31.5621 28.6323 32.1392 29.9441 33.2733 30.9857C33.7873 31.4691 34.3614 31.8428 35 32.1081C34.8615 32.5061 34.7153 32.8874 34.5599 33.2534ZM29.7492 14.4943C29.7492 15.7298 29.2937 16.8835 28.3858 17.9513C27.29 19.2207 25.9647 19.9542 24.5275 19.8385C24.5092 19.6903 24.4986 19.5343 24.4986 19.3703C24.4986 18.1842 25.0197 16.9148 25.945 15.8768C26.407 15.3513 26.9946 14.9144 27.7071 14.5658C28.4181 14.2224 29.0906 14.0325 29.7231 14C29.7415 14.1652 29.7492 14.3304 29.7492 14.4943Z" fill="white"/>
<path d="M44.564 19V18.1H45.74V11.5H44.564V10.6H47.84C48.944 10.6 49.796 10.88 50.396 11.44C51.004 12 51.308 12.86 51.308 14.02V15.58C51.308 16.748 51.004 17.612 50.396 18.172C49.796 18.724 48.944 19 47.84 19H44.564ZM46.748 18.088H47.84C48.656 18.088 49.272 17.888 49.688 17.488C50.104 17.088 50.312 16.468 50.312 15.628V13.984C50.312 13.128 50.104 12.504 49.688 12.112C49.272 11.72 48.656 11.524 47.84 11.524H46.748V18.088ZM55.665 19.168C55.073 19.168 54.549 19.044 54.093 18.796C53.645 18.548 53.293 18.2 53.037 17.752C52.789 17.296 52.665 16.76 52.665 16.144V15.988C52.665 15.38 52.789 14.848 53.037 14.392C53.293 13.936 53.645 13.584 54.093 13.336C54.549 13.088 55.073 12.964 55.665 12.964C56.257 12.964 56.777 13.088 57.225 13.336C57.681 13.584 58.033 13.936 58.281 14.392C58.537 14.848 58.665 15.38 58.665 15.988V16.144C58.665 16.76 58.537 17.296 58.281 17.752C58.033 18.2 57.681 18.548 57.225 18.796C56.777 19.044 56.257 19.168 55.665 19.168ZM55.665 18.316C56.289 18.316 56.785 18.12 57.153 17.728C57.529 17.328 57.717 16.792 57.717 16.12V16.012C57.717 15.34 57.529 14.808 57.153 14.416C56.785 14.016 56.289 13.816 55.665 13.816C55.049 13.816 54.553 14.016 54.177 14.416C53.801 14.808 53.613 15.34 53.613 16.012V16.12C53.613 16.792 53.801 17.328 54.177 17.728C54.553 18.12 55.049 18.316 55.665 18.316ZM61.0698 19L59.8938 13.132H60.8538L61.8258 18.364H61.9938L63.2778 13.132H64.8498L66.1338 18.364H66.3018L67.2738 13.132H68.2338L67.0578 19H65.4378L64.1418 13.768H63.9858L62.6898 19H61.0698ZM69.8632 19V13.132H70.7872V14.128H70.9552C71.0832 13.848 71.2992 13.596 71.6032 13.372C71.9152 13.14 72.3712 13.024 72.9712 13.024C73.4112 13.024 73.8032 13.116 74.1472 13.3C74.4992 13.484 74.7792 13.756 74.9872 14.116C75.1952 14.476 75.2992 14.92 75.2992 15.448V19H74.3512V15.52C74.3512 14.936 74.2032 14.512 73.9072 14.248C73.6192 13.984 73.2272 13.852 72.7312 13.852C72.1632 13.852 71.6992 14.036 71.3392 14.404C70.9872 14.772 70.8112 15.32 70.8112 16.048V19H69.8632ZM77.2226 19V10.6H78.1706V19H77.2226ZM82.876 19.168C82.284 19.168 81.76 19.044 81.304 18.796C80.856 18.548 80.504 18.2 80.248 17.752C80 17.296 79.876 16.76 79.876 16.144V15.988C79.876 15.38 80 14.848 80.248 14.392C80.504 13.936 80.856 13.584 81.304 13.336C81.76 13.088 82.284 12.964 82.876 12.964C83.468 12.964 83.988 13.088 84.436 13.336C84.892 13.584 85.244 13.936 85.492 14.392C85.748 14.848 85.876 15.38 85.876 15.988V16.144C85.876 16.76 85.748 17.296 85.492 17.752C85.244 18.2 84.892 18.548 84.436 18.796C83.988 19.044 83.468 19.168 82.876 19.168ZM82.876 18.316C83.5 18.316 83.996 18.12 84.364 17.728C84.74 17.328 84.928 16.792 84.928 16.12V16.012C84.928 15.34 84.74 14.808 84.364 14.416C83.996 14.016 83.5 13.816 82.876 13.816C82.26 13.816 81.764 14.016 81.388 14.416C81.012 14.808 80.824 15.34 80.824 16.012V16.12C80.824 16.792 81.012 17.328 81.388 17.728C81.764 18.12 82.26 18.316 82.876 18.316ZM89.3819 19.168C88.9739 19.168 88.6019 19.096 88.2659 18.952C87.9299 18.808 87.6659 18.6 87.4739 18.328C87.2819 18.056 87.1859 17.724 87.1859 17.332C87.1859 16.932 87.2819 16.604 87.4739 16.348C87.6659 16.084 87.9299 15.888 88.2659 15.76C88.6019 15.624 88.9779 15.556 89.3939 15.556H91.3739V15.124C91.3739 14.708 91.2499 14.38 91.0019 14.14C90.7619 13.9 90.4019 13.78 89.9219 13.78C89.4499 13.78 89.0819 13.896 88.8179 14.128C88.5539 14.352 88.3739 14.656 88.2779 15.04L87.3899 14.752C87.4859 14.424 87.6379 14.128 87.8459 13.864C88.0539 13.592 88.3299 13.376 88.6739 13.216C89.0259 13.048 89.4459 12.964 89.9339 12.964C90.6859 12.964 91.2699 13.16 91.6859 13.552C92.1019 13.936 92.3099 14.48 92.3099 15.184V17.836C92.3099 18.076 92.4219 18.196 92.6459 18.196H93.1859V19H92.3579C92.0939 19 91.8819 18.928 91.7219 18.784C91.5619 18.632 91.4819 18.432 91.4819 18.184V18.124H91.3379C91.2499 18.276 91.1299 18.436 90.9779 18.604C90.8339 18.764 90.6339 18.896 90.3779 19C90.1219 19.112 89.7899 19.168 89.3819 19.168ZM89.4899 18.352C90.0499 18.352 90.5019 18.188 90.8459 17.86C91.1979 17.524 91.3739 17.056 91.3739 16.456V16.324H89.4299C89.0539 16.324 88.7419 16.408 88.4939 16.576C88.2539 16.736 88.1339 16.98 88.1339 17.308C88.1339 17.636 88.2579 17.892 88.5059 18.076C88.7619 18.26 89.0899 18.352 89.4899 18.352ZM96.8042 19.168C96.3002 19.168 95.8362 19.048 95.4122 18.808C94.9882 18.568 94.6522 18.22 94.4042 17.764C94.1562 17.308 94.0322 16.768 94.0322 16.144V15.988C94.0322 15.364 94.1562 14.828 94.4042 14.38C94.6522 13.924 94.9842 13.576 95.4002 13.336C95.8242 13.088 96.2922 12.964 96.8042 12.964C97.2122 12.964 97.5562 13.02 97.8362 13.132C98.1242 13.236 98.3562 13.372 98.5322 13.54C98.7082 13.7 98.8442 13.872 98.9402 14.056H99.1082V10.6H100.056V19H99.1322V18.028H98.9642C98.8042 18.324 98.5562 18.588 98.2202 18.82C97.8842 19.052 97.4122 19.168 96.8042 19.168ZM97.0562 18.328C97.6642 18.328 98.1562 18.136 98.5322 17.752C98.9162 17.36 99.1082 16.816 99.1082 16.12V16.012C99.1082 15.316 98.9162 14.776 98.5322 14.392C98.1562 14 97.6642 13.804 97.0562 13.804C96.4562 13.804 95.9602 14 95.5682 14.392C95.1842 14.776 94.9922 15.316 94.9922 16.012V16.12C94.9922 16.816 95.1842 17.36 95.5682 17.752C95.9602 18.136 96.4562 18.328 97.0562 18.328ZM107.837 19.168C107.245 19.168 106.721 19.044 106.265 18.796C105.817 18.548 105.465 18.2 105.209 17.752C104.961 17.296 104.837 16.76 104.837 16.144V15.988C104.837 15.38 104.961 14.848 105.209 14.392C105.465 13.936 105.817 13.584 106.265 13.336C106.721 13.088 107.245 12.964 107.837 12.964C108.429 12.964 108.949 13.088 109.397 13.336C109.853 13.584 110.205 13.936 110.453 14.392C110.709 14.848 110.837 15.38 110.837 15.988V16.144C110.837 16.76 110.709 17.296 110.453 17.752C110.205 18.2 109.853 18.548 109.397 18.796C108.949 19.044 108.429 19.168 107.837 19.168ZM107.837 18.316C108.461 18.316 108.957 18.12 109.325 17.728C109.701 17.328 109.889 16.792 109.889 16.12V16.012C109.889 15.34 109.701 14.808 109.325 14.416C108.957 14.016 108.461 13.816 107.837 13.816C107.221 13.816 106.725 14.016 106.349 14.416C105.973 14.808 105.785 15.34 105.785 16.012V16.12C105.785 16.792 105.973 17.328 106.349 17.728C106.725 18.12 107.221 18.316 107.837 18.316ZM112.543 19V13.132H113.467V14.128H113.635C113.763 13.848 113.979 13.596 114.283 13.372C114.595 13.14 115.051 13.024 115.651 13.024C116.091 13.024 116.483 13.116 116.827 13.3C117.179 13.484 117.459 13.756 117.667 14.116C117.875 14.476 117.979 14.92 117.979 15.448V19H117.031V15.52C117.031 14.936 116.883 14.512 116.587 14.248C116.299 13.984 115.907 13.852 115.411 13.852C114.843 13.852 114.379 14.036 114.019 14.404C113.667 14.772 113.491 15.32 113.491 16.048V19H112.543Z" fill="white"/>
<path d="M44.252 39L46.828 29.2H50.048L52.624 39H50.72L50.188 36.844H46.688L46.156 39H44.252ZM47.122 35.136H49.754L48.564 30.362H48.312L47.122 35.136ZM53.853 41.8V32.056H55.589V32.896H55.841C55.9997 32.6253 56.247 32.3873 56.583 32.182C56.919 31.9673 57.3997 31.86 58.025 31.86C58.585 31.86 59.103 32 59.579 32.28C60.055 32.5507 60.4377 32.952 60.727 33.484C61.0164 34.016 61.161 34.66 61.161 35.416V35.64C61.161 36.396 61.0164 37.04 60.727 37.572C60.4377 38.104 60.055 38.51 59.579 38.79C59.103 39.0607 58.585 39.196 58.025 39.196C57.605 39.196 57.2504 39.1447 56.961 39.042C56.681 38.9487 56.4524 38.8273 56.275 38.678C56.107 38.5193 55.9717 38.3607 55.869 38.202H55.617V41.8H53.853ZM57.493 37.656C58.0437 37.656 58.4964 37.4833 58.851 37.138C59.215 36.7833 59.397 36.27 59.397 35.598V35.458C59.397 34.786 59.215 34.2773 58.851 33.932C58.487 33.5773 58.0344 33.4 57.493 33.4C56.9517 33.4 56.499 33.5773 56.135 33.932C55.771 34.2773 55.589 34.786 55.589 35.458V35.598C55.589 36.27 55.771 36.7833 56.135 37.138C56.499 37.4833 56.9517 37.656 57.493 37.656ZM62.7808 41.8V32.056H64.5168V32.896H64.7688C64.9274 32.6253 65.1748 32.3873 65.5108 32.182C65.8468 31.9673 66.3274 31.86 66.9528 31.86C67.5128 31.86 68.0308 32 68.5068 32.28C68.9828 32.5507 69.3654 32.952 69.6548 33.484C69.9441 34.016 70.0888 34.66 70.0888 35.416V35.64C70.0888 36.396 69.9441 37.04 69.6548 37.572C69.3654 38.104 68.9828 38.51 68.5068 38.79C68.0308 39.0607 67.5128 39.196 66.9528 39.196C66.5328 39.196 66.1781 39.1447 65.8888 39.042C65.6088 38.9487 65.3801 38.8273 65.2028 38.678C65.0348 38.5193 64.8994 38.3607 64.7968 38.202H64.5448V41.8H62.7808ZM66.4208 37.656C66.9714 37.656 67.4241 37.4833 67.7788 37.138C68.1428 36.7833 68.3248 36.27 68.3248 35.598V35.458C68.3248 34.786 68.1428 34.2773 67.7788 33.932C67.4148 33.5773 66.9621 33.4 66.4208 33.4C65.8794 33.4 65.4268 33.5773 65.0628 33.932C64.6988 34.2773 64.5168 34.786 64.5168 35.458V35.598C64.5168 36.27 64.6988 36.7833 65.0628 37.138C65.4268 37.4833 65.8794 37.656 66.4208 37.656ZM78.6092 39.196C77.8532 39.196 77.1859 39.0607 76.6072 38.79C76.0285 38.5193 75.5759 38.132 75.2492 37.628C74.9225 37.124 74.7592 36.5173 74.7592 35.808V35.416H76.5792V35.808C76.5792 36.396 76.7612 36.8393 77.1252 37.138C77.4892 37.4273 77.9839 37.572 78.6092 37.572C79.2439 37.572 79.7152 37.446 80.0232 37.194C80.3405 36.942 80.4992 36.62 80.4992 36.228C80.4992 35.9573 80.4199 35.738 80.2612 35.57C80.1119 35.402 79.8879 35.2667 79.5892 35.164C79.2999 35.052 78.9452 34.9493 78.5252 34.856L78.2032 34.786C77.5312 34.6367 76.9525 34.45 76.4672 34.226C75.9912 33.9927 75.6225 33.6893 75.3612 33.316C75.1092 32.9427 74.9832 32.4573 74.9832 31.86C74.9832 31.2627 75.1232 30.754 75.4032 30.334C75.6925 29.9047 76.0939 29.578 76.6072 29.354C77.1299 29.1207 77.7412 29.004 78.4412 29.004C79.1412 29.004 79.7619 29.1253 80.3032 29.368C80.8539 29.6013 81.2832 29.956 81.5912 30.432C81.9085 30.8987 82.0672 31.4867 82.0672 32.196V32.616H80.2472V32.196C80.2472 31.8227 80.1725 31.524 80.0232 31.3C79.8832 31.0667 79.6779 30.8987 79.4072 30.796C79.1365 30.684 78.8145 30.628 78.4412 30.628C77.8812 30.628 77.4659 30.7353 77.1952 30.95C76.9339 31.1553 76.8032 31.44 76.8032 31.804C76.8032 32.0467 76.8639 32.252 76.9852 32.42C77.1159 32.588 77.3072 32.728 77.5592 32.84C77.8112 32.952 78.1332 33.05 78.5252 33.134L78.8472 33.204C79.5472 33.3533 80.1539 33.5447 80.6672 33.778C81.1899 34.0113 81.5959 34.3193 81.8852 34.702C82.1745 35.0847 82.3192 35.5747 82.3192 36.172C82.3192 36.7693 82.1652 37.2967 81.8572 37.754C81.5585 38.202 81.1292 38.5567 80.5692 38.818C80.0185 39.07 79.3652 39.196 78.6092 39.196ZM86.4134 39C85.9561 39 85.5828 38.86 85.2934 38.58C85.0134 38.2907 84.8734 37.908 84.8734 37.432V33.512H83.1374V32.056H84.8734V29.9H86.6374V32.056H88.5414V33.512H86.6374V37.124C86.6374 37.404 86.7681 37.544 87.0294 37.544H88.3734V39H86.4134ZM93.1961 39.196C92.5054 39.196 91.8848 39.056 91.3341 38.776C90.7834 38.496 90.3494 38.09 90.0321 37.558C89.7148 37.026 89.5561 36.3867 89.5561 35.64V35.416C89.5561 34.6693 89.7148 34.03 90.0321 33.498C90.3494 32.966 90.7834 32.56 91.3341 32.28C91.8848 32 92.5054 31.86 93.1961 31.86C93.8868 31.86 94.5074 32 95.0581 32.28C95.6088 32.56 96.0428 32.966 96.3601 33.498C96.6774 34.03 96.8361 34.6693 96.8361 35.416V35.64C96.8361 36.3867 96.6774 37.026 96.3601 37.558C96.0428 38.09 95.6088 38.496 95.0581 38.776C94.5074 39.056 93.8868 39.196 93.1961 39.196ZM93.1961 37.628C93.7374 37.628 94.1854 37.4553 94.5401 37.11C94.8948 36.7553 95.0721 36.2513 95.0721 35.598V35.458C95.0721 34.8047 94.8948 34.3053 94.5401 33.96C94.1948 33.6053 93.7468 33.428 93.1961 33.428C92.6548 33.428 92.2068 33.6053 91.8521 33.96C91.4974 34.3053 91.3201 34.8047 91.3201 35.458V35.598C91.3201 36.2513 91.4974 36.7553 91.8521 37.11C92.2068 37.4553 92.6548 37.628 93.1961 37.628ZM98.4644 39V32.056H100.2V32.84H100.452C100.555 32.56 100.723 32.3547 100.956 32.224C101.199 32.0933 101.479 32.028 101.796 32.028H102.636V33.596H101.768C101.32 33.596 100.952 33.7173 100.662 33.96C100.373 34.1933 100.228 34.5573 100.228 35.052V39H98.4644ZM106.933 39.196C106.242 39.196 105.631 39.0513 105.099 38.762C104.576 38.4633 104.166 38.048 103.867 37.516C103.578 36.9747 103.433 36.34 103.433 35.612V35.444C103.433 34.716 103.578 34.086 103.867 33.554C104.156 33.0127 104.562 32.5973 105.085 32.308C105.608 32.0093 106.214 31.86 106.905 31.86C107.586 31.86 108.179 32.014 108.683 32.322C109.187 32.6207 109.579 33.0407 109.859 33.582C110.139 34.114 110.279 34.7347 110.279 35.444V36.046H105.225C105.244 36.522 105.421 36.9093 105.757 37.208C106.093 37.5067 106.504 37.656 106.989 37.656C107.484 37.656 107.848 37.5487 108.081 37.334C108.314 37.1193 108.492 36.8813 108.613 36.62L110.055 37.376C109.924 37.6187 109.733 37.8847 109.481 38.174C109.238 38.454 108.912 38.6967 108.501 38.902C108.09 39.098 107.568 39.196 106.933 39.196ZM105.239 34.73H108.487C108.45 34.3287 108.286 34.0067 107.997 33.764C107.717 33.5213 107.348 33.4 106.891 33.4C106.415 33.4 106.037 33.5213 105.757 33.764C105.477 34.0067 105.304 34.3287 105.239 34.73Z" fill="white"/>
</svg>
