<svg width="86" height="29" viewBox="0 0 86 29" fill="none" xmlns="http://www.w3.org/2000/svg">
<g clip-path="url(#clip0_4564_33699)">
<path d="M79.1688 9.30031e-05H6.99659C6.73352 9.30031e-05 6.4736 9.30032e-05 6.21122 0.00152382C5.99158 0.00295464 5.77369 0.00711116 5.55194 0.0106095C5.07021 0.0162625 4.58961 0.0585249 4.11431 0.137029C3.63969 0.217243 3.17993 0.368468 2.75059 0.585591C2.32177 0.80455 1.92995 1.08907 1.58934 1.42881C1.24694 1.76761 0.961524 2.15921 0.744066 2.58856C0.526007 3.01705 0.374804 3.47622 0.29568 3.95021C0.215803 4.4236 0.172821 4.90245 0.167119 5.38246C0.160461 5.6018 0.159758 5.82187 0.15625 6.04125V22.5774C0.159758 22.7995 0.160461 23.0147 0.167119 23.2369C0.172823 23.7169 0.215805 24.1957 0.29568 24.6691C0.374586 25.1434 0.525797 25.6028 0.744066 26.0315C0.961426 26.4594 1.24688 26.8494 1.58934 27.1863C1.92866 27.5276 2.32074 27.8123 2.75059 28.0296C3.17993 28.2473 3.63963 28.3994 4.11431 28.4809C4.58969 28.5588 5.07024 28.601 5.55194 28.6074C5.77369 28.6122 5.99158 28.615 6.21122 28.615C6.47359 28.6164 6.73353 28.6164 6.99659 28.6164H79.1688C79.4267 28.6164 79.6887 28.6164 79.9465 28.615C80.1651 28.615 80.3893 28.6122 80.6079 28.6074C81.0887 28.6014 81.5683 28.5591 82.0427 28.4809C82.5189 28.3989 82.9803 28.2468 83.4117 28.0296C83.8412 27.8122 84.2329 27.5275 84.5719 27.1863C84.9135 26.8481 85.1996 26.4584 85.4196 26.0315C85.6362 25.6025 85.786 25.1431 85.8638 24.6691C85.9438 24.1957 85.9883 23.717 85.9969 23.2369C85.9997 23.0147 85.9997 22.7995 85.9997 22.5774C86.0053 22.3175 86.0053 22.059 86.0053 21.7949V6.82232C86.0053 6.56033 86.0053 6.30044 85.9997 6.04125C85.9997 5.82187 85.9997 5.6018 85.9969 5.38243C85.9883 4.90238 85.9438 4.42363 85.8638 3.95018C85.7858 3.47647 85.636 3.01733 85.4196 2.58853C84.9768 1.72795 84.2745 1.02744 83.4117 0.585526C82.9803 0.368934 82.5189 0.217749 82.0427 0.136965C81.5684 0.0581147 81.0887 0.0158376 80.6079 0.0105094C80.3893 0.00701816 80.1651 0.00282586 79.9465 0.00143082C79.6887 0 79.4267 9.30031e-05 79.1688 9.30031e-05Z" fill="#A6A6A6"/>
<path d="M6.21487 27.9894C5.99629 27.9894 5.78298 27.9866 5.56612 27.9817C5.11686 27.9759 4.66865 27.9369 4.22516 27.865C3.81164 27.794 3.41104 27.6619 3.03659 27.4731C2.66557 27.2858 2.32717 27.0402 2.03436 26.7458C1.7373 26.4548 1.48999 26.1173 1.30223 25.7467C1.11239 25.3737 0.981011 24.9739 0.912668 24.5611C0.838863 24.1177 0.798932 23.6693 0.793218 23.2198C0.788669 23.0689 0.782715 22.5665 0.782715 22.5665V6.04017C0.782715 6.04017 0.789057 5.54553 0.793254 5.40021C0.798725 4.95142 0.838424 4.5037 0.912008 4.06092C0.980477 3.64707 1.11196 3.24608 1.3019 2.87183C1.48897 2.50148 1.73491 2.16374 2.03017 1.87173C2.32511 1.57694 2.66459 1.33011 3.03624 1.14024C3.40983 0.952009 3.80967 0.820831 4.22236 0.751105C4.6673 0.678538 5.11706 0.639305 5.56788 0.633735L6.21522 0.625H79.9431L80.5982 0.634086C81.0449 0.639379 81.4906 0.678262 81.9315 0.750404C82.3483 0.821004 82.7523 0.953098 83.1302 1.14234C83.8747 1.52497 84.4806 2.13034 84.8628 2.87358C85.0497 3.24524 85.1791 3.64296 85.2467 4.05323C85.3212 4.49965 85.3629 4.95089 85.3714 5.40336C85.3735 5.60596 85.3735 5.82359 85.3735 6.04017C85.3792 6.30845 85.3792 6.5638 85.3792 6.82125V21.7938C85.3792 22.0537 85.3792 22.3073 85.3735 22.563C85.3735 22.7957 85.3735 23.0088 85.3707 23.2281C85.3623 23.6725 85.3213 24.1157 85.2481 24.5541C85.1811 24.9698 85.0505 25.3728 84.8607 25.7489C84.6716 26.1155 84.4257 26.45 84.1321 26.7402C83.839 27.0362 83.5 27.2832 83.1281 27.4717C82.7513 27.662 82.3479 27.7946 81.9315 27.865C81.488 27.9373 81.0398 27.9763 80.5905 27.9817C80.3803 27.9866 80.1603 27.9894 79.9467 27.9894L79.169 27.9908L6.21487 27.9894Z" fill="black"/>
<path d="M17.9208 14.5191C17.9285 13.9219 18.0875 13.3365 18.3831 12.8171C18.6787 12.2978 19.1013 11.8614 19.6114 11.5486C19.2873 11.0871 18.8598 10.7072 18.3627 10.4393C17.8657 10.1713 17.3128 10.0226 16.7481 10.005C15.5434 9.87892 14.3755 10.7239 13.7616 10.7239C13.1358 10.7239 12.1906 10.0175 11.1728 10.0384C10.5144 10.0596 9.87278 10.2505 9.31041 10.5925C8.74804 10.9346 8.28411 11.416 7.9638 11.99C6.57632 14.3854 7.61126 17.906 8.94035 19.8423C9.60532 20.7905 10.3825 21.8496 11.3994 21.8121C12.3945 21.7709 12.7661 21.1793 13.9673 21.1793C15.1573 21.1793 15.506 21.8121 16.5436 21.7882C17.6113 21.7709 18.2841 20.8358 18.9257 19.8787C19.4035 19.2031 19.7712 18.4564 20.0151 17.6663C19.3947 17.4046 18.8653 16.9667 18.4929 16.407C18.1205 15.8473 17.9215 15.1907 17.9208 14.5191Z" fill="white"/>
<path d="M15.9568 8.7316C16.539 8.03464 16.8259 7.13882 16.7564 6.23438C15.8669 6.32754 15.0453 6.75146 14.4552 7.42167C14.1667 7.74909 13.9458 8.13 13.805 8.54263C13.6642 8.95525 13.6063 9.39151 13.6347 9.82644C14.0796 9.83101 14.5197 9.73485 14.922 9.5452C15.3242 9.35556 15.678 9.07737 15.9568 8.7316Z" fill="white"/>
<path d="M30.502 19.4124H27.1061L26.2906 21.8136H24.8523L28.0688 12.9297H29.5631L32.7796 21.8136H31.3167L30.502 19.4124ZM27.4578 18.3044H30.1496L28.8226 14.4073H28.7855L27.4578 18.3044Z" fill="white"/>
<path d="M39.7192 18.5774C39.7192 20.5902 38.6389 21.8834 37.0086 21.8834C36.5956 21.9049 36.1849 21.81 35.8234 21.6096C35.462 21.4092 35.1645 21.1114 34.9649 20.7502H34.9341V23.9583H33.6008V15.3385H34.8914V16.4158H34.9159C35.1246 16.0563 35.4272 15.76 35.7914 15.5584C36.1555 15.3567 36.5677 15.2573 36.9841 15.2707C38.6326 15.2707 39.7192 16.5702 39.7192 18.5774ZM38.3488 18.5774C38.3488 17.2661 37.6692 16.4039 36.6324 16.4039C35.6137 16.4039 34.9285 17.2842 34.9285 18.5774C34.9285 19.8825 35.6137 20.7565 36.6324 20.7565C37.6693 20.7565 38.3488 19.9006 38.3488 18.5774Z" fill="white"/>
<path d="M46.8725 18.5774C46.8725 20.5902 45.7922 21.8834 44.1619 21.8834C43.7489 21.9049 43.3382 21.81 42.9768 21.6096C42.6153 21.4092 42.3178 21.1114 42.1182 20.7502H42.0874V23.9583H40.7542V15.3385H42.0447V16.4158H42.0692C42.2779 16.0563 42.5805 15.76 42.9447 15.5584C43.3088 15.3567 43.721 15.2573 44.1374 15.2707C45.7859 15.2707 46.8725 16.5702 46.8725 18.5774ZM45.5022 18.5774C45.5022 17.2661 44.8226 16.4039 43.7857 16.4039C42.767 16.4039 42.0818 17.2842 42.0818 18.5774C42.0818 19.8825 42.767 20.7565 43.7857 20.7565C44.8226 20.7565 45.5022 19.9006 45.5022 18.5774Z" fill="white"/>
<path d="M51.596 19.338C51.6948 20.219 52.553 20.7975 53.7258 20.7975C54.8496 20.7975 55.6581 20.219 55.6581 19.4246C55.6581 18.7351 55.1705 18.3222 54.0159 18.0392L52.8613 17.7619C51.2254 17.3678 50.4659 16.6049 50.4659 15.3669C50.4659 13.8341 51.8055 12.7812 53.7076 12.7812C55.5901 12.7812 56.8806 13.8341 56.9241 15.3669H55.5782C55.4976 14.4803 54.7627 13.9452 53.6887 13.9452C52.6147 13.9452 51.8797 14.4866 51.8797 15.2747C51.8797 15.9028 52.3491 16.2724 53.4974 16.5553L54.479 16.7956C56.3068 17.2267 57.0663 17.9589 57.0663 19.2583C57.0663 20.9204 55.7386 21.9614 53.627 21.9614C51.6513 21.9614 50.3174 20.9448 50.2312 19.338L51.596 19.338Z" fill="white"/>
<path d="M59.9451 13.8047V15.3375H61.1803V16.3904H59.9451V19.9611C59.9451 20.5158 60.1924 20.7743 60.7354 20.7743C60.882 20.7718 61.0284 20.7615 61.1739 20.7436V21.7901C60.9298 21.8356 60.6817 21.8562 60.4334 21.8516C59.1184 21.8516 58.6055 21.3591 58.6055 20.1029V16.3904H57.6611V15.3375H58.6055V13.8047H59.9451Z" fill="white"/>
<path d="M61.9006 18.5725C61.9006 16.5345 63.1043 15.2539 64.9812 15.2539C66.8644 15.2539 68.0624 16.5345 68.0624 18.5725C68.0624 20.616 66.8707 21.891 64.9812 21.891C63.0923 21.891 61.9006 20.616 61.9006 18.5725ZM66.704 18.5725C66.704 17.1745 66.0615 16.3494 64.9812 16.3494C63.9008 16.3494 63.2591 17.1808 63.2591 18.5725C63.2591 19.976 63.9008 20.7948 64.9812 20.7948C66.0615 20.7948 66.704 19.976 66.704 18.5725Z" fill="white"/>
<path d="M69.156 15.3384H70.4276V16.4409H70.4585C70.5445 16.0966 70.7468 15.7923 71.0313 15.5792C71.3158 15.3661 71.6652 15.2571 72.0208 15.2707C72.1744 15.2701 72.3277 15.2868 72.4776 15.3203V16.5638C72.2836 16.5047 72.0813 16.4776 71.8785 16.4835C71.6849 16.4757 71.4918 16.5097 71.3125 16.5833C71.1333 16.6569 70.9721 16.7683 70.8402 16.9099C70.7082 17.0515 70.6085 17.2199 70.5479 17.4035C70.4873 17.5871 70.4673 17.7816 70.4893 17.9737V21.8155H69.156L69.156 15.3384Z" fill="white"/>
<path d="M78.6282 19.9083C78.4488 21.0841 77.3005 21.891 75.8314 21.891C73.9419 21.891 72.769 20.6286 72.769 18.6032C72.769 16.5715 73.9482 15.2539 75.7753 15.2539C77.5724 15.2539 78.7025 16.4849 78.7025 18.4488V18.9043H74.1149V18.9846C74.0937 19.223 74.1237 19.4632 74.2027 19.6891C74.2817 19.9151 74.4081 20.1217 74.5734 20.2952C74.7386 20.4687 74.939 20.6052 75.1612 20.6955C75.3834 20.7859 75.6224 20.8281 75.8622 20.8193C76.1773 20.8487 76.4934 20.776 76.7637 20.6118C77.034 20.4477 77.2439 20.2009 77.3622 19.9082L78.6282 19.9083ZM74.1212 17.9751H77.3685C77.3805 17.7608 77.3479 17.5463 77.2728 17.3451C77.1977 17.1439 77.0817 16.9604 76.9321 16.806C76.7825 16.6517 76.6025 16.5298 76.4035 16.4481C76.2044 16.3664 75.9905 16.3266 75.7753 16.3312C75.5582 16.3299 75.343 16.3715 75.1421 16.4536C74.9412 16.5357 74.7586 16.6566 74.6048 16.8095C74.451 16.9623 74.3291 17.144 74.2461 17.3441C74.1631 17.5441 74.1206 17.7586 74.1212 17.9751Z" fill="white"/>
<path d="M27.3009 6.24313C27.5804 6.22312 27.8609 6.26523 28.1221 6.36641C28.3833 6.4676 28.6188 6.62533 28.8114 6.82824C29.0041 7.03115 29.1493 7.27417 29.2363 7.53978C29.3234 7.80539 29.3503 8.08697 29.3151 8.3642C29.3151 9.72795 28.576 10.5119 27.3009 10.5119H25.7546V6.24313H27.3009ZM26.4195 9.90816H27.2266C27.4263 9.92007 27.6262 9.88741 27.8117 9.81257C27.9972 9.73773 28.1636 9.62259 28.2988 9.47552C28.434 9.32846 28.5347 9.15318 28.5934 8.96244C28.6521 8.77169 28.6675 8.5703 28.6383 8.3729C28.6654 8.17628 28.6485 7.97613 28.5888 7.78679C28.5292 7.59744 28.4283 7.4236 28.2934 7.2777C28.1585 7.13181 27.9929 7.01748 27.8084 6.94291C27.624 6.86834 27.4253 6.83537 27.2266 6.84637H26.4195V9.90816Z" fill="white"/>
<path d="M30.067 8.90193C30.0467 8.69023 30.071 8.47663 30.1383 8.27484C30.2056 8.07304 30.3145 7.88751 30.458 7.73013C30.6014 7.57275 30.7762 7.44701 30.9713 7.36096C31.1663 7.27492 31.3772 7.23047 31.5905 7.23047C31.8037 7.23047 32.0147 7.27492 32.2097 7.36096C32.4047 7.44701 32.5796 7.57275 32.723 7.73013C32.8664 7.88751 32.9753 8.07304 33.0426 8.27484C33.11 8.47663 33.1343 8.69023 33.1139 8.90193C33.1346 9.11385 33.1106 9.32775 33.0435 9.52987C32.9764 9.73199 32.8675 9.91787 32.7241 10.0756C32.5806 10.2332 32.4056 10.3592 32.2104 10.4455C32.0152 10.5317 31.804 10.5763 31.5905 10.5763C31.377 10.5763 31.1658 10.5317 30.9706 10.4455C30.7754 10.3592 30.6004 10.2332 30.4569 10.0756C30.3134 9.91787 30.2046 9.73199 30.1375 9.52987C30.0703 9.32775 30.0463 9.11385 30.067 8.90193ZM32.4582 8.90193C32.4582 8.20365 32.1436 7.79529 31.5915 7.79529C31.0374 7.79529 30.7256 8.20365 30.7256 8.90194C30.7256 9.60583 31.0374 10.011 31.5915 10.011C32.1436 10.011 32.4582 9.60302 32.4582 8.90193Z" fill="white"/>
<path d="M37.1607 10.5105H36.4993L35.8316 8.13791H35.7812L35.1163 10.5105H34.4613L33.5708 7.28906H34.2175L34.7962 9.74721H34.8438L35.508 7.28906H36.1196L36.7838 9.74721H36.8342L37.4101 7.28906H38.0476L37.1607 10.5105Z" fill="white"/>
<path d="M38.801 7.29192H39.4148V7.80367H39.4624C39.5432 7.61987 39.6795 7.46579 39.8523 7.36291C40.0251 7.26003 40.2258 7.21347 40.4264 7.22973C40.5836 7.21795 40.7414 7.24158 40.8882 7.29888C41.035 7.35619 41.167 7.44569 41.2744 7.56076C41.3817 7.67582 41.4618 7.81351 41.5086 7.96362C41.5553 8.11373 41.5677 8.27241 41.5446 8.4279V10.5133H40.907V8.58755C40.907 8.06986 40.6814 7.81241 40.2099 7.81241C40.1032 7.80745 39.9967 7.82556 39.8976 7.8655C39.7986 7.90544 39.7094 7.96627 39.6361 8.04381C39.5629 8.12135 39.5073 8.21377 39.4732 8.31474C39.4391 8.4157 39.4273 8.52283 39.4386 8.62877V10.5134H38.801L38.801 7.29192Z" fill="white"/>
<path d="M42.5525 6.03125H43.19V10.5102H42.5525V6.03125Z" fill="white"/>
<path d="M44.0895 8.90199C44.0692 8.69028 44.0935 8.47667 44.1608 8.27487C44.2281 8.07306 44.337 7.88752 44.4805 7.73014C44.624 7.57276 44.7988 7.44701 44.9939 7.36097C45.1889 7.27492 45.3998 7.23047 45.6131 7.23047C45.8264 7.23047 46.0373 7.27492 46.2324 7.36097C46.4274 7.44701 46.6022 7.57276 46.7457 7.73014C46.8892 7.88752 46.998 8.07306 47.0654 8.27487C47.1327 8.47667 47.157 8.69028 47.1367 8.90199C47.1574 9.11392 47.1334 9.32782 47.0662 9.52994C46.9991 9.73206 46.8902 9.91793 46.7467 10.0756C46.6032 10.2333 46.4283 10.3593 46.233 10.4455C46.0378 10.5318 45.8266 10.5763 45.6131 10.5763C45.3996 10.5763 45.1884 10.5318 44.9932 10.4455C44.7979 10.3593 44.623 10.2333 44.4795 10.0756C44.336 9.91793 44.2271 9.73206 44.16 9.52994C44.0928 9.32782 44.0688 9.11392 44.0895 8.90199ZM46.4806 8.90199C46.4806 8.20371 46.166 7.79535 45.614 7.79535C45.0598 7.79535 44.7481 8.20371 44.7481 8.902C44.7481 9.60589 45.0598 10.0111 45.614 10.0111C46.166 10.0111 46.4806 9.60308 46.4806 8.90199Z" fill="white"/>
<path d="M47.7971 9.60305C47.7971 9.02318 48.2301 8.68888 48.9986 8.64137L49.8737 8.59107V8.31301C49.8737 7.97277 49.6481 7.78065 49.2123 7.78065C48.8564 7.78065 48.6098 7.91094 48.5391 8.1387H47.9218C47.987 7.58538 48.5089 7.23047 49.2418 7.23047C50.0517 7.23047 50.5085 7.63253 50.5085 8.31301V10.5141H49.8947V10.0614H49.8443C49.7419 10.2238 49.5981 10.3561 49.4276 10.445C49.2572 10.5339 49.0661 10.576 48.8739 10.5672C48.7383 10.5812 48.6013 10.5668 48.4716 10.5248C48.3419 10.4828 48.2225 10.4142 48.121 10.3233C48.0196 10.2325 47.9383 10.1215 47.8825 9.99742C47.8268 9.87336 47.7977 9.73902 47.7971 9.60305ZM49.8737 9.32778V9.05846L49.0848 9.10876C48.6399 9.13845 48.4382 9.28936 48.4382 9.57335C48.4382 9.86329 48.6904 10.032 49.0372 10.032C49.1388 10.0423 49.2415 10.032 49.339 10.0019C49.4366 9.97181 49.5271 9.92244 49.6052 9.85673C49.6832 9.79103 49.7472 9.71034 49.7933 9.61947C49.8395 9.5286 49.8668 9.4294 49.8737 9.32778Z" fill="white"/>
<path d="M51.3521 8.89814C51.3521 7.88022 51.8768 7.23537 52.693 7.23537C52.8949 7.22609 53.0953 7.27431 53.2707 7.37439C53.4461 7.47448 53.5894 7.62228 53.6837 7.80054H53.7313V6.03125H54.3688V10.5102H53.7579V10.0013H53.7075C53.6059 10.1783 53.4577 10.3243 53.2788 10.4234C53.1 10.5224 52.8974 10.5708 52.693 10.5633C51.8712 10.5634 51.3521 9.9185 51.3521 8.89814ZM52.0106 8.89814C52.0106 9.58141 52.3336 9.99256 52.8738 9.99256C53.4111 9.99256 53.7432 9.57548 53.7432 8.90093C53.7432 8.22954 53.4076 7.80651 52.8738 7.80651C52.3371 7.80651 52.0106 8.22045 52.0106 8.89814Z" fill="white"/>
<path d="M57.0045 8.90193C56.9842 8.69023 57.0085 8.47663 57.0758 8.27484C57.1431 8.07304 57.252 7.88751 57.3955 7.73013C57.5389 7.57275 57.7137 7.44701 57.9088 7.36096C58.1038 7.27492 58.3147 7.23047 58.528 7.23047C58.7412 7.23047 58.9522 7.27492 59.1472 7.36096C59.3422 7.44701 59.5171 7.57275 59.6605 7.73013C59.8039 7.88751 59.9128 8.07304 59.9801 8.27484C60.0475 8.47663 60.0718 8.69023 60.0514 8.90193C60.0721 9.11385 60.0481 9.32775 59.981 9.52987C59.9138 9.73199 59.805 9.91787 59.6616 10.0756C59.5181 10.2332 59.3431 10.3592 59.1479 10.4455C58.9527 10.5317 58.7415 10.5763 58.528 10.5763C58.3145 10.5763 58.1033 10.5317 57.9081 10.4455C57.7128 10.3592 57.5379 10.2332 57.3944 10.0756C57.2509 9.91787 57.1421 9.73199 57.075 9.52987C57.0078 9.32775 56.9838 9.11385 57.0045 8.90193ZM59.3957 8.90193C59.3957 8.20365 59.0811 7.79529 58.529 7.79529C57.9749 7.79529 57.6631 8.20365 57.6631 8.90194C57.6631 9.60583 57.9749 10.011 58.529 10.011C59.0811 10.011 59.3957 9.60302 59.3957 8.90193Z" fill="white"/>
<path d="M60.9092 7.29192H61.5229V7.80367H61.5706C61.6514 7.61987 61.7877 7.46579 61.9605 7.36291C62.1333 7.26003 62.334 7.21347 62.5346 7.22973C62.6918 7.21795 62.8496 7.24158 62.9964 7.29888C63.1432 7.35619 63.2751 7.44569 63.3825 7.56076C63.4899 7.67582 63.57 7.81351 63.6167 7.96362C63.6635 8.11373 63.6758 8.27241 63.6527 8.4279V10.5133H63.0152V8.58755C63.0152 8.06986 62.7896 7.81241 62.3181 7.81241C62.2114 7.80745 62.1048 7.82556 62.0058 7.8655C61.9067 7.90544 61.8175 7.96627 61.7443 8.04381C61.671 8.12135 61.6154 8.21377 61.5813 8.31474C61.5472 8.4157 61.5354 8.52283 61.5467 8.62877V10.5134H60.9092V7.29192Z" fill="white"/>
<path d="M67.2539 6.48828V7.30499H67.9538V7.8405H67.2539V9.49698C67.2539 9.83443 67.3933 9.98219 67.7107 9.98219C67.7919 9.98193 67.8731 9.97703 67.9538 9.96751V10.4971C67.8393 10.5175 67.7233 10.5284 67.607 10.5296C66.898 10.5296 66.6156 10.2808 66.6156 9.65976V7.84047H66.1028V7.30496H66.6156V6.48828H67.2539Z" fill="white"/>
<path d="M68.8201 6.03125H69.452V7.8065H69.5024C69.5872 7.62098 69.7273 7.46603 69.9035 7.36276C70.0798 7.25949 70.2837 7.21293 70.4875 7.22942C70.6438 7.22094 70.8002 7.24697 70.9453 7.30567C71.0904 7.36436 71.2207 7.45427 71.327 7.56897C71.4333 7.68368 71.5128 7.82036 71.56 7.96926C71.6072 8.11816 71.6209 8.27562 71.6 8.43039V10.5102H70.9618V8.58723C70.9618 8.07268 70.7215 7.81208 70.271 7.81208C70.1615 7.80312 70.0512 7.81814 69.9481 7.8561C69.845 7.89405 69.7514 7.95402 69.6739 8.03181C69.5964 8.10961 69.5369 8.20334 69.4996 8.30646C69.4622 8.40957 69.4479 8.51958 69.4576 8.62879V10.5102H68.8201L68.8201 6.03125Z" fill="white"/>
<path d="M75.317 9.64433C75.2304 9.93875 75.0427 10.1934 74.7868 10.3638C74.5309 10.5342 74.2231 10.6094 73.9172 10.5763C73.7044 10.5819 73.4929 10.5413 73.2974 10.4572C73.1019 10.3731 72.9271 10.2476 72.7851 10.0894C72.6431 9.9312 72.5373 9.74408 72.4751 9.54103C72.4129 9.33798 72.3958 9.12387 72.4249 8.91355C72.3966 8.70259 72.414 8.48801 72.4761 8.28436C72.5381 8.0807 72.6433 7.89271 72.7845 7.73312C72.9258 7.57354 73.0998 7.44607 73.2947 7.35936C73.4896 7.27264 73.7009 7.22871 73.9144 7.23052C74.8133 7.23052 75.3555 7.84291 75.3555 8.8545V9.07634H73.0744V9.11197C73.0644 9.23019 73.0793 9.34918 73.1181 9.46132C73.1569 9.57346 73.2188 9.67627 73.2998 9.76316C73.3808 9.85005 73.4792 9.91911 73.5885 9.96589C73.6978 10.0127 73.8157 10.0362 73.9347 10.0348C74.0872 10.0531 74.2417 10.0257 74.3786 9.95618C74.5154 9.88663 74.6284 9.77808 74.7033 9.6443L75.317 9.64433ZM73.0743 8.60615H74.7061C74.7141 8.49803 74.6994 8.38943 74.6628 8.28733C74.6262 8.18523 74.5687 8.09188 74.4938 8.01329C74.4189 7.93469 74.3283 7.87259 74.228 7.83097C74.1276 7.78935 74.0196 7.76914 73.9109 7.77162C73.8006 7.77024 73.6912 7.79089 73.589 7.83234C73.4869 7.87379 73.3941 7.93522 73.3162 8.01299C73.2382 8.09077 73.1766 8.18332 73.1351 8.28519C73.0936 8.38706 73.0729 8.49619 73.0743 8.60615Z" fill="white"/>
</g>
<defs>
<clipPath id="clip0_4564_33699">
<rect width="85.8491" height="28.6164" fill="white" transform="translate(0.15625)"/>
</clipPath>
</defs>
</svg>
