<svg width="133" height="51" viewBox="0 0 133 51" fill="none" xmlns="http://www.w3.org/2000/svg">
<rect x="0.5" y="0.5" width="132" height="50" rx="9.5" stroke="white"/>
<path d="M47.888 19.168C47.264 19.168 46.712 19.04 46.232 18.784C45.76 18.52 45.388 18.136 45.116 17.632C44.852 17.128 44.72 16.504 44.72 15.76V13.84C44.72 12.728 45.016 11.884 45.608 11.308C46.2 10.724 46.996 10.432 47.996 10.432C48.988 10.432 49.744 10.704 50.264 11.248C50.784 11.792 51.044 12.52 51.044 13.432V13.492H50.048V13.408C50.048 13.008 49.976 12.652 49.832 12.34C49.688 12.028 49.464 11.784 49.16 11.608C48.856 11.424 48.468 11.332 47.996 11.332C47.284 11.332 46.728 11.552 46.328 11.992C45.928 12.424 45.728 13.032 45.728 13.816V15.784C45.728 16.568 45.928 17.18 46.328 17.62C46.728 18.052 47.288 18.268 48.008 18.268C48.712 18.268 49.228 18.068 49.556 17.668C49.892 17.268 50.06 16.736 50.06 16.072V15.868H47.516V15.004H51.044V19H50.132V18.088H49.964C49.876 18.264 49.752 18.436 49.592 18.604C49.432 18.772 49.216 18.908 48.944 19.012C48.672 19.116 48.32 19.168 47.888 19.168ZM55.6059 19.168C55.0139 19.168 54.4939 19.044 54.0459 18.796C53.5979 18.54 53.2499 18.184 53.0019 17.728C52.7539 17.272 52.6299 16.744 52.6299 16.144V16C52.6299 15.392 52.7539 14.86 53.0019 14.404C53.2499 13.948 53.5939 13.596 54.0339 13.348C54.4739 13.092 54.9779 12.964 55.5459 12.964C56.0979 12.964 56.5859 13.084 57.0099 13.324C57.4339 13.556 57.7659 13.892 58.0059 14.332C58.2459 14.772 58.3659 15.288 58.3659 15.88V16.312H53.5779C53.6019 16.944 53.8059 17.44 54.1899 17.8C54.5739 18.152 55.0539 18.328 55.6299 18.328C56.1339 18.328 56.5219 18.212 56.7939 17.98C57.0659 17.748 57.2739 17.472 57.4179 17.152L58.2339 17.548C58.1139 17.796 57.9459 18.044 57.7299 18.292C57.5219 18.54 57.2459 18.748 56.9019 18.916C56.5659 19.084 56.1339 19.168 55.6059 19.168ZM53.5899 15.532H57.4059C57.3739 14.988 57.1859 14.564 56.8419 14.26C56.5059 13.956 56.0739 13.804 55.5459 13.804C55.0099 13.804 54.5699 13.956 54.2259 14.26C53.8819 14.564 53.6699 14.988 53.5899 15.532ZM61.9333 19C61.5973 19 61.3373 18.908 61.1533 18.724C60.9773 18.54 60.8893 18.288 60.8893 17.968V13.96H59.1253V13.132H60.8893V11.044H61.8373V13.132H63.7573V13.96H61.8373V17.824C61.8373 18.064 61.9533 18.184 62.1853 18.184H63.4933V19H61.9333ZM68.3749 19V13.132H69.3229V19H68.3749ZM68.8549 12.22C68.6469 12.22 68.4709 12.152 68.3269 12.016C68.1909 11.88 68.1229 11.708 68.1229 11.5C68.1229 11.284 68.1909 11.108 68.3269 10.972C68.4709 10.836 68.6469 10.768 68.8549 10.768C69.0629 10.768 69.2349 10.836 69.3709 10.972C69.5069 11.108 69.5749 11.284 69.5749 11.5C69.5749 11.708 69.5069 11.88 69.3709 12.016C69.2349 12.152 69.0629 12.22 68.8549 12.22ZM73.4763 19C73.1403 19 72.8803 18.908 72.6963 18.724C72.5203 18.54 72.4323 18.288 72.4323 17.968V13.96H70.6683V13.132H72.4323V11.044H73.3803V13.132H75.3003V13.96H73.3803V17.824C73.3803 18.064 73.4963 18.184 73.7283 18.184H75.0363V19H73.4763ZM82.6299 19.168C82.0379 19.168 81.5139 19.044 81.0579 18.796C80.6099 18.548 80.2579 18.2 80.0019 17.752C79.7539 17.296 79.6299 16.76 79.6299 16.144V15.988C79.6299 15.38 79.7539 14.848 80.0019 14.392C80.2579 13.936 80.6099 13.584 81.0579 13.336C81.5139 13.088 82.0379 12.964 82.6299 12.964C83.2219 12.964 83.7419 13.088 84.1899 13.336C84.6459 13.584 84.9979 13.936 85.2459 14.392C85.5019 14.848 85.6299 15.38 85.6299 15.988V16.144C85.6299 16.76 85.5019 17.296 85.2459 17.752C84.9979 18.2 84.6459 18.548 84.1899 18.796C83.7419 19.044 83.2219 19.168 82.6299 19.168ZM82.6299 18.316C83.2539 18.316 83.7499 18.12 84.1179 17.728C84.4939 17.328 84.6819 16.792 84.6819 16.12V16.012C84.6819 15.34 84.4939 14.808 84.1179 14.416C83.7499 14.016 83.2539 13.816 82.6299 13.816C82.0139 13.816 81.5179 14.016 81.1419 14.416C80.7659 14.808 80.5779 15.34 80.5779 16.012V16.12C80.5779 16.792 80.7659 17.328 81.1419 17.728C81.5179 18.12 82.0139 18.316 82.6299 18.316ZM87.3358 19V13.132H88.2598V14.128H88.4278C88.5558 13.848 88.7718 13.596 89.0758 13.372C89.3878 13.14 89.8438 13.024 90.4438 13.024C90.8838 13.024 91.2758 13.116 91.6198 13.3C91.9718 13.484 92.2518 13.756 92.4598 14.116C92.6678 14.476 92.7718 14.92 92.7718 15.448V19H91.8238V15.52C91.8238 14.936 91.6758 14.512 91.3798 14.248C91.0918 13.984 90.6998 13.852 90.2038 13.852C89.6358 13.852 89.1718 14.036 88.8118 14.404C88.4598 14.772 88.2838 15.32 88.2838 16.048V19H87.3358Z" fill="white"/>
<path d="M44.924 39V29.2H48.956C49.572 29.2 50.1133 29.326 50.58 29.578C51.056 29.8207 51.4247 30.166 51.686 30.614C51.9567 31.062 52.092 31.594 52.092 32.21V32.406C52.092 33.0127 51.952 33.5447 51.672 34.002C51.4013 34.45 51.028 34.8 50.552 35.052C50.0853 35.2947 49.5533 35.416 48.956 35.416H46.772V39H44.924ZM46.772 33.736H48.774C49.2127 33.736 49.5673 33.6147 49.838 33.372C50.1087 33.1293 50.244 32.798 50.244 32.378V32.238C50.244 31.818 50.1087 31.4867 49.838 31.244C49.5673 31.0013 49.2127 30.88 48.774 30.88H46.772V33.736ZM53.4292 39V29.2H55.1932V39H53.4292ZM59.304 39.196C58.8093 39.196 58.366 39.112 57.974 38.944C57.582 38.7667 57.2693 38.5147 57.036 38.188C56.812 37.852 56.7 37.446 56.7 36.97C56.7 36.494 56.812 36.0973 57.036 35.78C57.2693 35.4533 57.5866 35.2107 57.988 35.052C58.3986 34.884 58.8653 34.8 59.388 34.8H61.292V34.408C61.292 34.0813 61.1893 33.8153 60.984 33.61C60.7786 33.3953 60.452 33.288 60.004 33.288C59.5653 33.288 59.2386 33.3907 59.024 33.596C58.8093 33.792 58.6693 34.0487 58.604 34.366L56.98 33.82C57.092 33.4653 57.2693 33.1433 57.512 32.854C57.764 32.5553 58.0953 32.3173 58.506 32.14C58.926 31.9533 59.4346 31.86 60.032 31.86C60.9466 31.86 61.67 32.0887 62.202 32.546C62.734 33.0033 63 33.666 63 34.534V37.124C63 37.404 63.1306 37.544 63.392 37.544H63.952V39H62.776C62.4306 39 62.146 38.916 61.922 38.748C61.698 38.58 61.586 38.356 61.586 38.076V38.062H61.32C61.2826 38.174 61.1986 38.3233 61.068 38.51C60.9373 38.6873 60.732 38.846 60.452 38.986C60.172 39.126 59.7893 39.196 59.304 39.196ZM59.612 37.768C60.1066 37.768 60.508 37.6327 60.816 37.362C61.1333 37.082 61.292 36.7133 61.292 36.256V36.116H59.514C59.1873 36.116 58.9306 36.186 58.744 36.326C58.5573 36.466 58.464 36.662 58.464 36.914C58.464 37.166 58.562 37.3713 58.758 37.53C58.954 37.6887 59.2386 37.768 59.612 37.768ZM65.8063 41.8V40.26H69.5863C69.8476 40.26 69.9783 40.12 69.9783 39.84V38.09H69.7263C69.6516 38.2487 69.535 38.4073 69.3763 38.566C69.2176 38.7247 69.003 38.8553 68.7323 38.958C68.4616 39.0607 68.1163 39.112 67.6963 39.112C67.155 39.112 66.679 38.9907 66.2683 38.748C65.867 38.496 65.5543 38.1507 65.3303 37.712C65.1063 37.2733 64.9943 36.7693 64.9943 36.2V32.056H66.7583V36.06C66.7583 36.5827 66.8843 36.9747 67.1363 37.236C67.3976 37.4973 67.7663 37.628 68.2423 37.628C68.7836 37.628 69.2036 37.4507 69.5023 37.096C69.801 36.732 69.9503 36.228 69.9503 35.584V32.056H71.7143V40.232C71.7143 40.708 71.5743 41.086 71.2943 41.366C71.0143 41.6553 70.641 41.8 70.1743 41.8H65.8063ZM80.578 39.196C79.822 39.196 79.1546 39.0607 78.576 38.79C77.9973 38.5193 77.5446 38.132 77.218 37.628C76.8913 37.124 76.728 36.5173 76.728 35.808V35.416H78.548V35.808C78.548 36.396 78.73 36.8393 79.094 37.138C79.458 37.4273 79.9526 37.572 80.578 37.572C81.2126 37.572 81.684 37.446 81.992 37.194C82.3093 36.942 82.468 36.62 82.468 36.228C82.468 35.9573 82.3886 35.738 82.23 35.57C82.0806 35.402 81.8566 35.2667 81.558 35.164C81.2686 35.052 80.914 34.9493 80.494 34.856L80.172 34.786C79.5 34.6367 78.9213 34.45 78.436 34.226C77.96 33.9927 77.5913 33.6893 77.33 33.316C77.078 32.9427 76.952 32.4573 76.952 31.86C76.952 31.2627 77.092 30.754 77.372 30.334C77.6613 29.9047 78.0626 29.578 78.576 29.354C79.0986 29.1207 79.71 29.004 80.41 29.004C81.11 29.004 81.7306 29.1253 82.272 29.368C82.8226 29.6013 83.252 29.956 83.56 30.432C83.8773 30.8987 84.036 31.4867 84.036 32.196V32.616H82.216V32.196C82.216 31.8227 82.1413 31.524 81.992 31.3C81.852 31.0667 81.6466 30.8987 81.376 30.796C81.1053 30.684 80.7833 30.628 80.41 30.628C79.85 30.628 79.4346 30.7353 79.164 30.95C78.9026 31.1553 78.772 31.44 78.772 31.804C78.772 32.0467 78.8326 32.252 78.954 32.42C79.0846 32.588 79.276 32.728 79.528 32.84C79.78 32.952 80.102 33.05 80.494 33.134L80.816 33.204C81.516 33.3533 82.1226 33.5447 82.636 33.778C83.1586 34.0113 83.5646 34.3193 83.854 34.702C84.1433 35.0847 84.288 35.5747 84.288 36.172C84.288 36.7693 84.134 37.2967 83.826 37.754C83.5273 38.202 83.098 38.5567 82.538 38.818C81.9873 39.07 81.334 39.196 80.578 39.196ZM88.3822 39C87.9249 39 87.5515 38.86 87.2622 38.58C86.9822 38.2907 86.8422 37.908 86.8422 37.432V33.512H85.1062V32.056H86.8422V29.9H88.6062V32.056H90.5102V33.512H88.6062V37.124C88.6062 37.404 88.7369 37.544 88.9982 37.544H90.3422V39H88.3822ZM95.1649 39.196C94.4742 39.196 93.8535 39.056 93.3029 38.776C92.7522 38.496 92.3182 38.09 92.0009 37.558C91.6835 37.026 91.5249 36.3867 91.5249 35.64V35.416C91.5249 34.6693 91.6835 34.03 92.0009 33.498C92.3182 32.966 92.7522 32.56 93.3029 32.28C93.8535 32 94.4742 31.86 95.1649 31.86C95.8555 31.86 96.4762 32 97.0269 32.28C97.5775 32.56 98.0115 32.966 98.3289 33.498C98.6462 34.03 98.8049 34.6693 98.8049 35.416V35.64C98.8049 36.3867 98.6462 37.026 98.3289 37.558C98.0115 38.09 97.5775 38.496 97.0269 38.776C96.4762 39.056 95.8555 39.196 95.1649 39.196ZM95.1649 37.628C95.7062 37.628 96.1542 37.4553 96.5089 37.11C96.8635 36.7553 97.0409 36.2513 97.0409 35.598V35.458C97.0409 34.8047 96.8635 34.3053 96.5089 33.96C96.1635 33.6053 95.7155 33.428 95.1649 33.428C94.6235 33.428 94.1755 33.6053 93.8209 33.96C93.4662 34.3053 93.2889 34.8047 93.2889 35.458V35.598C93.2889 36.2513 93.4662 36.7553 93.8209 37.11C94.1755 37.4553 94.6235 37.628 95.1649 37.628ZM100.433 39V32.056H102.169V32.84H102.421C102.524 32.56 102.692 32.3547 102.925 32.224C103.168 32.0933 103.448 32.028 103.765 32.028H104.605V33.596H103.737C103.289 33.596 102.92 33.7173 102.631 33.96C102.342 34.1933 102.197 34.5573 102.197 35.052V39H100.433ZM108.902 39.196C108.211 39.196 107.6 39.0513 107.068 38.762C106.545 38.4633 106.134 38.048 105.836 37.516C105.546 36.9747 105.402 36.34 105.402 35.612V35.444C105.402 34.716 105.546 34.086 105.836 33.554C106.125 33.0127 106.531 32.5973 107.054 32.308C107.576 32.0093 108.183 31.86 108.874 31.86C109.555 31.86 110.148 32.014 110.652 32.322C111.156 32.6207 111.548 33.0407 111.828 33.582C112.108 34.114 112.248 34.7347 112.248 35.444V36.046H107.194C107.212 36.522 107.39 36.9093 107.726 37.208C108.062 37.5067 108.472 37.656 108.958 37.656C109.452 37.656 109.816 37.5487 110.05 37.334C110.283 37.1193 110.46 36.8813 110.582 36.62L112.024 37.376C111.893 37.6187 111.702 37.8847 111.45 38.174C111.207 38.454 110.88 38.6967 110.47 38.902C110.059 39.098 109.536 39.196 108.902 39.196ZM107.208 34.73H110.456C110.418 34.3287 110.255 34.0067 109.966 33.764C109.686 33.5213 109.317 33.4 108.86 33.4C108.384 33.4 108.006 33.5213 107.726 33.764C107.446 34.0067 107.273 34.3287 107.208 34.73Z" fill="white"/>
<path d="M17.027 14.5527L30.5351 22.3495L35.7355 25.3538C36.2234 25.6474 36.2274 26.3488 35.7431 26.6462L35.7202 26.6615L17.0384 37.4473L17.0231 37.4549C16.9351 37.5041 16.8382 37.5352 16.738 37.5463C16.6379 37.5575 16.5365 37.5484 16.4399 37.5196C16.1349 37.4281 15.8945 37.1499 15.8945 36.7877V15.2161C15.8945 14.8539 16.1347 14.5756 16.4399 14.4841C16.6266 14.4306 16.8363 14.4421 17.027 14.5527Z" fill="#47BCFF"/>
<path d="M17.0247 14.5528L30.5327 22.3495L27.1395 26.002L16.4375 14.484C16.6243 14.4306 16.834 14.4421 17.0247 14.5528Z" fill="#0BDF74"/>
<path d="M30.5338 22.3477L35.7342 25.352C36.2222 25.6456 36.2262 26.347 35.7418 26.6444L35.7189 26.6597L30.5338 29.6487L27.1406 26.0002L30.5338 22.3477Z" fill="#FDBA21"/>
<path d="M27.1395 26L30.5327 29.6487L17.0361 37.4455L17.0207 37.4531C16.9328 37.5023 16.8359 37.5334 16.7357 37.5445C16.6355 37.5557 16.5341 37.5466 16.4375 37.5178L27.1395 26Z" fill="#FB434C"/>
</svg>
