<svg width="33" height="33" viewBox="0 0 33 33" fill="none" xmlns="http://www.w3.org/2000/svg">
<g filter="url(#filter0_b_4564_32398)">
<circle cx="16.7214" cy="16.5019" r="16.0332" fill="url(#paint0_linear_4564_32398)" fill-opacity="0.72"/>
</g>
<path d="M19.7817 12.7586C19.6458 12.7586 19.5129 12.7989 19.3999 12.8744C19.2869 12.9499 19.1989 13.0572 19.1469 13.1828C19.0949 13.3083 19.0812 13.4465 19.1078 13.5798C19.1343 13.7131 19.1997 13.8355 19.2958 13.9316C19.3919 14.0277 19.5143 14.0931 19.6476 14.1197C19.7809 14.1462 19.9191 14.1326 20.0446 14.0806C20.1702 14.0285 20.2775 13.9405 20.353 13.8275C20.4285 13.7145 20.4688 13.5816 20.4688 13.4457C20.4688 13.2635 20.3964 13.0887 20.2676 12.9598C20.1387 12.831 19.9639 12.7586 19.7817 12.7586ZM22.4157 14.1443C22.4046 13.6692 22.3156 13.1992 22.1523 12.7529C22.0067 12.371 21.7801 12.0252 21.4881 11.7393C21.2045 11.4458 20.858 11.2206 20.4746 11.0808C20.0294 10.9126 19.5589 10.8216 19.0831 10.8117C18.4761 10.7773 18.2814 10.7773 16.7239 10.7773C15.1664 10.7773 14.9717 10.7773 14.3648 10.8117C13.889 10.8216 13.4184 10.9126 12.9733 11.0808C12.5906 11.2221 12.2443 11.447 11.9598 11.7393C11.6663 12.0229 11.4411 12.3695 11.3013 12.7529C11.133 13.198 11.042 13.6686 11.0322 14.1443C10.9978 14.7513 10.9978 14.946 10.9978 16.5035C10.9978 18.061 10.9978 18.2557 11.0322 18.8626C11.042 19.3384 11.133 19.809 11.3013 20.2541C11.4411 20.6375 11.6663 20.9841 11.9598 21.2676C12.2443 21.5599 12.5906 21.7849 12.9733 21.9261C13.4184 22.0944 13.889 22.1854 14.3648 22.1953C14.9717 22.2296 15.1664 22.2296 16.7239 22.2296C18.2814 22.2296 18.4761 22.2296 19.0831 22.1953C19.5589 22.1854 20.0294 22.0944 20.4746 21.9261C20.858 21.7863 21.2045 21.5611 21.4881 21.2676C21.7814 20.9828 22.0082 20.6367 22.1523 20.2541C22.3156 19.8078 22.4046 19.3377 22.4157 18.8626C22.4157 18.2557 22.4501 18.061 22.4501 16.5035C22.4501 14.946 22.4501 14.7513 22.4157 14.1443ZM21.385 18.7939C21.3808 19.1574 21.315 19.5175 21.1903 19.859C21.0989 20.1082 20.952 20.3334 20.7609 20.5175C20.5751 20.7067 20.3504 20.8533 20.1024 20.947C19.7609 21.0716 19.4008 21.1375 19.0373 21.1416C18.4647 21.1703 18.2528 21.176 16.7468 21.176C15.2409 21.176 15.029 21.176 14.4564 21.1416C14.079 21.1487 13.7032 21.0906 13.3455 20.9699C13.1083 20.8714 12.8939 20.7252 12.7156 20.5404C12.5256 20.3564 12.3806 20.1311 12.2919 19.8819C12.1521 19.5356 12.0746 19.1672 12.0629 18.7939C12.0629 18.2213 12.0285 18.0094 12.0285 16.5035C12.0285 14.9975 12.0285 14.7856 12.0629 14.213C12.0654 13.8414 12.1333 13.4732 12.2633 13.1251C12.3641 12.8834 12.5188 12.6679 12.7156 12.4952C12.8896 12.2983 13.1046 12.1419 13.3455 12.0371C13.6946 11.9111 14.0624 11.8453 14.4335 11.8424C15.0061 11.8424 15.218 11.808 16.7239 11.808C18.2299 11.808 18.4418 11.808 19.0144 11.8424C19.3779 11.8466 19.738 11.9124 20.0794 12.0371C20.3397 12.1337 20.5732 12.2907 20.7609 12.4952C20.9485 12.6711 21.0951 12.8861 21.1903 13.1251C21.3176 13.4737 21.3835 13.8418 21.385 14.213C21.4136 14.7856 21.4194 14.9975 21.4194 16.5035C21.4194 18.0094 21.4136 18.2213 21.385 18.7939ZM16.7239 13.566C16.1432 13.5671 15.5758 13.7403 15.0935 14.0638C14.6112 14.3873 14.2356 14.8464 14.0141 15.3833C13.7927 15.9202 13.7353 16.5106 13.8493 17.0801C13.9633 17.6495 14.2435 18.1724 14.6546 18.5826C15.0656 18.9929 15.589 19.2721 16.1587 19.385C16.7283 19.4978 17.3187 19.4393 17.8551 19.2168C18.3915 18.9943 18.85 18.6178 19.1725 18.1349C19.495 17.6519 19.6672 17.0842 19.6672 16.5035C19.6679 16.117 19.5923 15.7342 19.4446 15.3771C19.2968 15.02 19.08 14.6956 18.8065 14.4226C18.5329 14.1496 18.2081 13.9334 17.8507 13.7864C17.4933 13.6394 17.1104 13.5645 16.7239 13.566ZM16.7239 18.4103C16.3468 18.4103 15.9781 18.2984 15.6646 18.0889C15.351 17.8794 15.1066 17.5816 14.9623 17.2332C14.818 16.8848 14.7802 16.5014 14.8538 16.1315C14.9273 15.7616 15.109 15.4218 15.3756 15.1552C15.6423 14.8885 15.9821 14.7069 16.3519 14.6333C16.7218 14.5597 17.1052 14.5975 17.4536 14.7418C17.8021 14.8861 18.0999 15.1305 18.3094 15.4441C18.5189 15.7577 18.6307 16.1263 18.6307 16.5035C18.6307 16.7539 18.5814 17.0018 18.4856 17.2332C18.3898 17.4645 18.2493 17.6747 18.0722 17.8518C17.8952 18.0289 17.685 18.1693 17.4536 18.2651C17.2223 18.361 16.9743 18.4103 16.7239 18.4103Z" fill="white"/>
<defs>
<filter id="filter0_b_4564_32398" x="-2.77493" y="-2.99441" width="38.9927" height="38.9927" filterUnits="userSpaceOnUse" color-interpolation-filters="sRGB">
<feFlood flood-opacity="0" result="BackgroundImageFix"/>
<feGaussianBlur in="BackgroundImageFix" stdDeviation="1.73158"/>
<feComposite in2="SourceAlpha" operator="in" result="effect1_backgroundBlur_4564_32398"/>
<feBlend mode="normal" in="SourceGraphic" in2="effect1_backgroundBlur_4564_32398" result="shape"/>
</filter>
<linearGradient id="paint0_linear_4564_32398" x1="15.1554" y1="-13.5161" x2="16.2256" y2="58.3038" gradientUnits="userSpaceOnUse">
<stop stop-color="white" stop-opacity="0.6"/>
<stop offset="1" stop-opacity="0.4"/>
</linearGradient>
</defs>
</svg>
