<svg width="23" height="23" viewBox="0 0 23 23" fill="none" xmlns="http://www.w3.org/2000/svg">
<path d="M20.5357 0H2.46429C1.10379 0 0 1.10379 0 2.46429V20.5357C0 21.8962 1.10379 23 2.46429 23H20.5357C21.8962 23 23 21.8962 23 20.5357V2.46429C23 1.10379 21.8962 0 20.5357 0ZM18.0252 8.15268C18.0355 8.29643 18.0355 8.44531 18.0355 8.58906C18.0355 13.0402 14.6471 18.169 8.45558 18.169C6.54576 18.169 4.77455 17.6145 3.28571 16.6596C3.55781 16.6904 3.81964 16.7007 4.09688 16.7007C5.67299 16.7007 7.12076 16.1667 8.27589 15.2632C6.79732 15.2324 5.55491 14.2621 5.12879 12.9272C5.64732 13.0042 6.11451 13.0042 6.64844 12.8656C5.10826 12.5525 3.95313 11.1971 3.95313 9.55937V9.5183C4.39978 9.76987 4.92344 9.92388 5.47277 9.94442C5.01093 9.63722 4.63233 9.22047 4.37076 8.73135C4.10918 8.24223 3.97275 7.69597 3.97366 7.14129C3.97366 6.51496 4.13795 5.93996 4.43058 5.44196C6.08884 7.48527 8.57879 8.82009 11.3717 8.96384C10.8942 6.67924 12.6038 4.82589 14.6574 4.82589C15.6277 4.82589 16.5004 5.23147 17.1165 5.88862C17.8763 5.74487 18.6054 5.4625 19.2522 5.07746C19.0007 5.85781 18.4719 6.51496 17.7737 6.9308C18.4513 6.85893 19.1085 6.66897 19.7143 6.40714C19.2574 7.07969 18.6824 7.67522 18.0252 8.15268Z" fill="white"/>
</svg>
