<svg width="98" height="98" viewBox="0 0 98 98" fill="none" xmlns="http://www.w3.org/2000/svg">
<rect width="98" height="98" rx="20.6316" fill="#1F182E"/>
<ellipse cx="49" cy="48.7632" rx="29" ry="29.7632" fill="url(#paint0_linear_38_901)"/>
<path opacity="0.6" d="M56.4148 32.8828C62.3299 32.8828 67.125 37.9677 67.125 44.2402C67.125 49.7164 64.0998 54.7229 60.5721 58.5008C57.0284 62.2958 52.6944 65.1584 49.5196 66.2772C49.1823 66.3961 48.8177 66.3961 48.4804 66.2772C45.3056 65.1584 40.9716 62.2958 37.4279 58.5008C33.9002 54.7229 30.875 49.7164 30.875 44.2402C30.875 37.9677 35.6702 32.8828 41.5852 32.8828C44.4638 32.8828 47.0769 34.0881 49 36.0449C50.9231 34.0881 53.5362 32.8828 56.4148 32.8828Z" fill="url(#paint1_linear_38_901)"/>
<defs>
<linearGradient id="paint0_linear_38_901" x1="41.9111" y1="40.2594" x2="73.0359" y2="49.0483" gradientUnits="userSpaceOnUse">
<stop stop-color="#B349E7"/>
<stop offset="1" stop-color="#5253B2"/>
</linearGradient>
<linearGradient id="paint1_linear_38_901" x1="67.125" y1="49.6246" x2="30.875" y2="49.6246" gradientUnits="userSpaceOnUse">
<stop stop-color="#CFE1FD"/>
<stop offset="1" stop-color="#FFFDE1"/>
</linearGradient>
</defs>
</svg>
