<svg width="33" height="33" viewBox="0 0 33 33" fill="none" xmlns="http://www.w3.org/2000/svg">
<g filter="url(#filter0_b_4564_32402)">
<circle cx="16.7214" cy="16.9668" r="16.0332" fill="url(#paint0_linear_4564_32402)" fill-opacity="0.72"/>
</g>
<g clip-path="url(#clip0_4564_32402)">
<path d="M11.2967 18.4454C11.2967 18.9739 11.4127 19.3796 11.5644 19.6251C11.7632 19.9466 12.0597 20.0831 12.3619 20.0831C12.7518 20.0831 13.1084 19.9863 13.7958 19.0357C14.3465 18.2737 14.9952 17.2043 15.4318 16.5338L16.1711 15.3978C16.6847 14.6089 17.2791 13.732 17.9607 13.1376C18.5172 12.6523 19.1173 12.3828 19.7214 12.3828C20.7355 12.3828 21.7015 12.9705 22.4409 14.0728C23.25 15.2799 23.6427 16.8004 23.6427 18.3695C23.6427 19.3024 23.4589 19.9878 23.146 20.5293C22.8437 21.0529 22.2546 21.5761 21.2635 21.5761V20.0828C22.1121 20.0828 22.3239 19.3031 22.3239 18.4107C22.3239 17.139 22.0274 15.7278 21.3742 14.7194C20.9107 14.0042 20.3101 13.5672 19.6492 13.5672C18.9344 13.5672 18.3592 14.1063 17.7128 15.0674C17.3691 15.5781 17.0163 16.2004 16.6201 16.9027L16.184 17.6753C15.3081 19.2287 15.0862 19.5824 14.6482 20.1661C13.8805 21.1883 13.2249 21.5759 12.3619 21.5759C11.3381 21.5759 10.6908 21.1326 10.2898 20.4645C9.96253 19.9202 9.80176 19.2058 9.80176 18.392L11.2967 18.4454Z" fill="white"/>
<path d="M10.9751 14.1782C11.6605 13.1217 12.6496 12.3828 13.7841 12.3828C14.4411 12.3828 15.0944 12.5773 15.7763 13.1342C16.5223 13.7429 17.3175 14.7459 18.3095 16.3983L18.6652 16.9911C19.5239 18.4216 20.0124 19.1575 20.2984 19.5046C20.666 19.9502 20.9236 20.0831 21.2581 20.0831C22.1067 20.0831 22.3184 19.3033 22.3184 18.411L23.6373 18.3696C23.6373 19.3024 23.4534 19.9878 23.1405 20.5293C22.8383 21.053 22.2491 21.5762 21.2581 21.5762C20.642 21.5762 20.0962 21.4424 19.4926 20.8729C19.0288 20.4359 18.4861 19.6596 18.0688 18.9616L16.8275 16.8881C16.2047 15.8475 15.6332 15.0716 15.3027 14.7202C14.947 14.3423 14.4897 13.886 13.76 13.886C13.1694 13.886 12.6679 14.3004 12.2482 14.9344L10.9751 14.1782Z" fill="white"/>
<path d="M13.7654 13.886C13.1749 13.886 12.6733 14.3004 12.2536 14.9344C11.6601 15.8301 11.297 17.1643 11.297 18.4456C11.297 18.9741 11.413 19.3798 11.5646 19.6253L10.2898 20.4647C9.96253 19.9204 9.80176 19.2061 9.80176 18.3922C9.80176 16.9121 10.208 15.3695 10.9805 14.1782C11.6659 13.1217 12.6551 12.3828 13.7896 12.3828L13.7654 13.886Z" fill="white"/>
</g>
<defs>
<filter id="filter0_b_4564_32402" x="-2.77493" y="-2.52957" width="38.9927" height="38.9927" filterUnits="userSpaceOnUse" color-interpolation-filters="sRGB">
<feFlood flood-opacity="0" result="BackgroundImageFix"/>
<feGaussianBlur in="BackgroundImageFix" stdDeviation="1.73158"/>
<feComposite in2="SourceAlpha" operator="in" result="effect1_backgroundBlur_4564_32402"/>
<feBlend mode="normal" in="SourceGraphic" in2="effect1_backgroundBlur_4564_32402" result="shape"/>
</filter>
<linearGradient id="paint0_linear_4564_32402" x1="15.1554" y1="-13.0513" x2="16.2256" y2="58.7686" gradientUnits="userSpaceOnUse">
<stop stop-color="white" stop-opacity="0.6"/>
<stop offset="1" stop-opacity="0.4"/>
</linearGradient>
<clipPath id="clip0_4564_32402">
<rect width="14.8879" height="9.24079" fill="white" transform="translate(9.27808 12.3828)"/>
</clipPath>
</defs>
</svg>
