<svg width="98" height="98" viewBox="0 0 98 98" fill="none" xmlns="http://www.w3.org/2000/svg">
<rect width="98" height="98" rx="20.6316" fill="#1F182E"/>
<path d="M41.9232 39.8125V35.7292C41.9232 31.9409 38.9566 28.8396 35.2255 28.6058C36.2503 27.4839 36.8187 26.0195 36.819 24.5C36.819 21.1221 34.0719 18.375 30.694 18.375C27.3161 18.375 24.569 21.1221 24.569 24.5C24.569 26.0803 25.1754 27.5186 26.1625 28.6058C22.4314 28.8396 19.4648 31.9409 19.4648 35.7292V39.8125C19.4648 40.0832 19.5724 40.3429 19.7638 40.5343C19.9553 40.7258 20.2149 40.8333 20.4857 40.8333H40.9023C41.1731 40.8333 41.4327 40.7258 41.6242 40.5343C41.8156 40.3429 41.9232 40.0832 41.9232 39.8125ZM30.694 20.4167C32.946 20.4167 34.7773 22.248 34.7773 24.5C34.7773 26.752 32.946 28.5833 30.694 28.5833C28.4421 28.5833 26.6107 26.752 26.6107 24.5C26.6107 22.248 28.4421 20.4167 30.694 20.4167ZM39.8815 38.7917H21.5065V35.7292C21.5065 32.9147 23.7962 30.625 26.6107 30.625H34.7773C37.5918 30.625 39.8815 32.9147 39.8815 35.7292V38.7917ZM74.0172 67.3975C75.042 66.2756 75.6104 64.8111 75.6107 63.2917C75.6107 59.9137 72.8636 57.1667 69.4857 57.1667C66.1077 57.1667 63.3607 59.9137 63.3607 63.2917C63.3607 64.8719 63.9671 66.3103 64.9542 67.3975C61.2231 67.6312 58.2565 70.7325 58.2565 74.5208V78.6042C58.2565 78.8749 58.3641 79.1346 58.5555 79.326C58.7469 79.5175 59.0066 79.625 59.2773 79.625H79.694C79.9648 79.625 80.2244 79.5175 80.4159 79.326C80.6073 79.1346 80.7148 78.8749 80.7148 78.6042V74.5208C80.7148 70.7325 77.7483 67.6312 74.0172 67.3975ZM69.4857 59.2083C71.7376 59.2083 73.569 61.0397 73.569 63.2917C73.569 65.5436 71.7376 67.375 69.4857 67.375C67.2337 67.375 65.4023 65.5436 65.4023 63.2917C65.4023 61.0397 67.2337 59.2083 69.4857 59.2083ZM78.6732 77.5833H60.2982V74.5208C60.2982 71.7064 62.5879 69.4167 65.4023 69.4167H73.569C76.3834 69.4167 78.6732 71.7064 78.6732 74.5208V77.5833ZM53.9547 44.9167C53.3832 44.9164 52.8176 45.0326 52.2925 45.2581C51.7674 45.4836 51.2937 45.8138 50.9004 46.2284L50.0898 47.0706L49.2793 46.2284C48.886 45.8138 48.4123 45.4836 47.8872 45.2581C47.3621 45.0326 46.7965 44.9164 46.225 44.9167C45.6533 44.9163 45.0875 45.0324 44.5622 45.258C44.0369 45.4835 43.5631 45.8137 43.1696 46.2284C41.5148 47.9475 41.5148 50.7456 43.1696 52.4657L49.3548 58.8949C49.4497 58.9945 49.5638 59.0738 49.6903 59.128C49.8167 59.1822 49.9528 59.2101 50.0904 59.2101C50.2279 59.2101 50.364 59.1822 50.4905 59.128C50.6169 59.0738 50.731 58.9945 50.8259 58.8949L57.0111 52.4657C58.6659 50.7446 58.6659 47.9465 57.0111 46.2284C56.6174 45.8138 56.1433 45.4836 55.6179 45.2581C55.0924 45.0326 54.5265 44.9164 53.9547 44.9167ZM55.5391 51.0509L50.0898 56.7155L44.6406 51.0509C44.2053 50.5906 43.9627 49.9811 43.9627 49.3476C43.9627 48.7141 44.2053 48.1046 44.6406 47.6443C44.8442 47.4283 45.0897 47.2561 45.3621 47.1381C45.6345 47.0202 45.9281 46.959 46.225 46.9583C46.8201 46.9583 47.3826 47.2013 47.8083 47.6443L49.3548 49.2511C49.7397 49.6523 50.441 49.6523 50.8259 49.2511L52.3724 47.6443C53.2238 46.7572 54.6887 46.7593 55.5401 47.6443C56.4435 48.5835 56.4425 50.1117 55.5391 51.0509ZM50.3889 27.8616L46.3056 31.9449C46.2107 32.0397 46.1355 32.1522 46.0841 32.276C46.0327 32.3998 46.0063 32.5326 46.0063 32.6667C46.0063 32.8007 46.0327 32.9335 46.0841 33.0573C46.1355 33.1812 46.2107 33.2937 46.3056 33.3884L50.3889 37.4717L51.8324 36.0283L49.4916 33.6875H68.4648V53.0833H70.5065V32.6667C70.5065 32.3959 70.399 32.1363 70.2075 31.9448C70.0161 31.7534 69.7564 31.6458 69.4857 31.6458H49.4916L51.8324 29.3051L50.3889 27.8616ZM49.7907 66.6533L48.3473 68.0967L50.6881 70.4375H31.7148V44.9167H29.6732V71.4583C29.6732 71.7291 29.7807 71.9887 29.9722 72.1802C30.1636 72.3716 30.4233 72.4792 30.694 72.4792H50.6881L48.3473 74.8199L49.7907 76.2634L53.8741 72.1801C53.969 72.0853 54.0442 71.9728 54.0956 71.849C54.1469 71.7252 54.1734 71.5924 54.1734 71.4583C54.1734 71.3243 54.1469 71.1915 54.0956 71.0677C54.0442 70.9438 53.969 70.8313 53.8741 70.7366L49.7907 66.6533Z" fill="url(#paint0_linear_4526_29806)" stroke="url(#paint1_linear_4526_29806)"/>
<defs>
<linearGradient id="paint0_linear_4526_29806" x1="42.6037" y1="40.25" x2="75.3436" y2="49.7383" gradientUnits="userSpaceOnUse">
<stop stop-color="#B349E7"/>
<stop offset="1" stop-color="#5253B2"/>
</linearGradient>
<linearGradient id="paint1_linear_4526_29806" x1="42.6037" y1="40.25" x2="75.3436" y2="49.7383" gradientUnits="userSpaceOnUse">
<stop stop-color="#B349E7"/>
<stop offset="1" stop-color="#5253B2"/>
</linearGradient>
</defs>
</svg>
