<svg width="72" height="71" viewBox="0 0 72 71" fill="none" xmlns="http://www.w3.org/2000/svg">
<rect x="0.757812" width="70.6926" height="71" rx="15.067" fill="#1F182E"/>
<g clip-path="url(#clip0_4564_32680)">
<path fill-rule="evenodd" clip-rule="evenodd" d="M15.1328 40.2147C15.1328 40.2148 15.1328 40.2149 15.1328 40.2151C15.1328 42.7164 15.6248 44.9118 16.6263 46.5847L16.6266 46.5845C17.8536 48.6374 19.8345 49.9998 22.9671 49.9998C25.6079 49.9998 27.614 48.8086 29.9631 45.6669C31.3035 43.873 31.9826 42.7861 34.6629 38.0117L35.9974 35.6374C36.1068 35.4427 36.215 35.25 36.3223 35.0595C36.4286 35.2345 36.5355 35.4122 36.643 35.5925L40.4415 41.9652C41.7185 44.1101 43.3791 46.4962 44.7984 47.8393C46.6454 49.5894 48.3155 50.0007 50.2009 50.0007C50.2903 50.0007 50.3787 49.9993 50.466 49.9965C53.3425 49.9076 55.0687 48.3459 55.9668 46.783C56.9243 45.1188 57.4869 43.0123 57.4869 40.1454C57.4869 35.3231 56.2851 30.6499 53.8091 26.9399C51.5468 23.5523 48.5908 21.7461 45.4873 21.7461C43.6389 21.7461 41.8027 22.5745 40.0995 24.0657C38.9476 25.0747 37.8771 26.3485 36.8846 27.6953C35.6631 26.1416 34.5272 24.9576 33.4263 24.0553C31.3415 22.3453 29.3442 21.7472 27.3357 21.7461C27.3338 21.7461 27.332 21.7461 27.3301 21.7461C23.8585 21.7461 20.8317 24.0169 18.7344 27.2639L18.7384 27.2663C16.3755 30.927 15.1329 35.6667 15.1328 40.2143M27.2597 26.366C25.4535 26.367 23.9195 27.6404 22.6357 29.5879C20.8195 32.3408 19.7084 36.4413 19.7084 40.3792C19.7084 42.0035 20.0632 43.2504 20.5274 44.0048L20.527 44.005C21.1354 44.9926 22.0424 45.4117 22.9671 45.4117C24.16 45.4117 25.2515 45.1144 27.3547 42.1927C28.5428 40.5419 29.8798 38.4214 31.0334 36.5919C31.5162 35.8262 31.9669 35.1114 32.361 34.5034L34.159 31.7288C33.2785 30.4692 32.521 29.5107 31.977 28.9297C30.889 27.7689 29.4906 26.3674 27.2597 26.366ZM41.1781 34.087C40.4029 32.7901 39.6669 31.6234 38.9627 30.5738C39.0893 30.3767 39.2153 30.1843 39.3409 29.9968C41.319 27.0431 43.0791 25.386 45.2664 25.386C47.2887 25.386 49.1269 26.7291 50.5451 28.9274C52.5438 32.0265 53.4511 36.3636 53.4511 40.2719V40.2726L53.4456 40.2728C53.4456 42.7968 52.8968 45.0278 50.7852 45.3673C50.604 45.3961 50.4113 45.411 50.2064 45.411V45.4119L50.2009 45.4119C49.1772 45.4119 48.3892 45.0035 47.264 43.6338C46.389 42.5672 44.8942 40.3054 42.2665 35.9089L41.1781 34.087Z" fill="url(#paint0_linear_4564_32680)"/>
</g>
<defs>
<linearGradient id="paint0_linear_4564_32680" x1="31.1332" y1="31.837" x2="51.7779" y2="40.8056" gradientUnits="userSpaceOnUse">
<stop stop-color="#B349E7"/>
<stop offset="1" stop-color="#5253B2"/>
</linearGradient>
<clipPath id="clip0_4564_32680">
<rect width="58.1256" height="28.2551" fill="white" transform="translate(7.24219 21.7344)"/>
</clipPath>
</defs>
</svg>
