<svg width="23" height="23" viewBox="0 0 23 23" fill="none" xmlns="http://www.w3.org/2000/svg">
<path opacity="0.16" d="M18.4979 6.03646C19.4563 7.09062 20.0312 8.24062 20.0312 10.1573C20.0312 13.5115 17.6354 16.4823 14.2812 18.0156L13.4187 16.7698C16.5812 15.0448 17.2521 12.8406 17.4437 11.4031C16.9646 11.6906 16.2937 11.7865 15.6229 11.6906C13.8979 11.499 12.5562 10.1573 12.5562 8.33646C12.5562 7.47396 12.9396 6.61146 13.5146 5.94062C14.1854 5.26979 14.9521 4.98229 15.9104 4.98229C16.9646 4.98229 17.9229 5.46146 18.4979 6.03646ZM8.91458 6.03646C9.87292 7.09062 10.4479 8.24062 10.4479 10.1573C10.4479 13.5115 8.05208 16.4823 4.69792 18.0156L3.83541 16.7698C6.99792 15.0448 7.66875 12.8406 7.86041 11.4031C7.38125 11.6906 6.71041 11.7865 6.03958 11.6906C4.31458 11.499 2.97292 10.1573 2.97292 8.33646C2.97292 7.47396 3.35625 6.61146 3.93125 5.94062C4.50625 5.26979 5.36875 4.98229 6.32708 4.98229C7.38125 4.98229 8.33958 5.46146 8.91458 6.03646Z" fill="url(#paint0_linear_4564_32566)"/>
<defs>
<linearGradient id="paint0_linear_4564_32566" x1="13.587" y1="13.3609" x2="4.94619" y2="10.0833" gradientUnits="userSpaceOnUse">
<stop stop-color="#B349E7"/>
<stop offset="1" stop-color="#5253B2"/>
</linearGradient>
</defs>
</svg>
