<svg width="71" height="71" viewBox="0 0 71 71" fill="none" xmlns="http://www.w3.org/2000/svg">
<rect width="70.6926" height="71" rx="15.067" fill="#1F182E"/>
<path d="M28.9269 29.1838V26.1957C28.9269 23.4234 26.756 21.1539 24.0256 20.9829C24.7756 20.1619 25.1915 19.0902 25.1918 17.9783C25.1918 15.5064 23.1815 13.4961 20.7096 13.4961C18.2376 13.4961 16.2274 15.5064 16.2274 17.9783C16.2274 19.1347 16.6711 20.1873 17.3935 20.9829C14.6631 21.1539 12.4922 23.4234 12.4922 26.1957V29.1838C12.4922 29.3819 12.5709 29.5719 12.711 29.712C12.8511 29.8521 13.0411 29.9308 13.2392 29.9308H28.1799C28.378 29.9308 28.568 29.8521 28.7081 29.712C28.8482 29.5719 28.9269 29.3819 28.9269 29.1838ZM20.7096 14.9902C22.3575 14.9902 23.6977 16.3303 23.6977 17.9783C23.6977 19.6263 22.3575 20.9664 20.7096 20.9664C19.0616 20.9664 17.7214 19.6263 17.7214 17.9783C17.7214 16.3303 19.0616 14.9902 20.7096 14.9902ZM27.4329 28.4368H13.9863V26.1957C13.9863 24.1361 15.6619 22.4605 17.7214 22.4605H23.6977C25.7573 22.4605 27.4329 24.1361 27.4329 26.1957V28.4368ZM52.4129 49.3701C53.1629 48.5492 53.5788 47.4775 53.579 46.3656C53.579 43.8936 51.5688 41.8834 49.0968 41.8834C46.6249 41.8834 44.6146 43.8936 44.6146 46.3656C44.6146 47.522 45.0584 48.5746 45.7808 49.3701C43.0503 49.5412 40.8795 51.8107 40.8795 54.5829V57.5711C40.8795 57.7692 40.9582 57.9592 41.0983 58.0993C41.2384 58.2394 41.4284 58.3181 41.6265 58.3181H56.5672C56.7653 58.3181 56.9553 58.2394 57.0954 58.0993C57.2355 57.9592 57.3142 57.7692 57.3142 57.5711V54.5829C57.3142 51.8107 55.1433 49.5412 52.4129 49.3701ZM49.0968 43.3774C50.7448 43.3774 52.085 44.7176 52.085 46.3656C52.085 48.0135 50.7448 49.3537 49.0968 49.3537C47.4489 49.3537 46.1087 48.0135 46.1087 46.3656C46.1087 44.7176 47.4489 43.3774 49.0968 43.3774ZM55.8201 56.824H42.3735V54.5829C42.3735 52.5234 44.0491 50.8478 46.1087 50.8478H52.085C54.1445 50.8478 55.8201 52.5234 55.8201 54.5829V56.824ZM37.7315 32.919C37.3132 32.9188 36.8994 33.0038 36.5151 33.1688C36.1308 33.3339 35.7842 33.5755 35.4963 33.8789L34.9032 34.4952L34.3101 33.8789C34.0222 33.5755 33.6756 33.3339 33.2913 33.1688C32.907 33.0038 32.4932 32.9188 32.0749 32.919C31.6566 32.9187 31.2426 33.0037 30.8582 33.1687C30.4737 33.3338 30.127 33.5754 29.8391 33.8789C28.6281 35.1369 28.6281 37.1845 29.8391 38.4433L34.3653 43.1481C34.4348 43.221 34.5183 43.279 34.6108 43.3187C34.7033 43.3583 34.8029 43.3788 34.9036 43.3788C35.0042 43.3788 35.1038 43.3583 35.1964 43.3187C35.2889 43.279 35.3724 43.221 35.4418 43.1481L39.9681 38.4433C41.179 37.1838 41.179 35.1362 39.9681 33.8789C39.68 33.5755 39.3331 33.3339 38.9485 33.1688C38.564 33.0038 38.1499 32.9188 37.7315 32.919ZM38.8909 37.4079L34.9032 41.5532L30.9155 37.4079C30.5969 37.0711 30.4194 36.6251 30.4194 36.1615C30.4194 35.6979 30.5969 35.2518 30.9155 34.915C31.0645 34.757 31.2442 34.6309 31.4435 34.5446C31.6429 34.4583 31.8577 34.4135 32.0749 34.413C32.5104 34.413 32.9221 34.5908 33.2336 34.915L34.3653 36.0909C34.647 36.3845 35.1602 36.3845 35.4418 36.0909L36.5736 34.915C37.1966 34.2659 38.2686 34.2674 38.8916 34.915C39.5527 35.6023 39.552 36.7206 38.8909 37.4079ZM35.1221 20.4383L32.1339 23.4264C32.0645 23.4957 32.0094 23.5781 31.9718 23.6687C31.9343 23.7593 31.9149 23.8565 31.9149 23.9546C31.9149 24.0527 31.9343 24.1498 31.9718 24.2404C32.0094 24.3311 32.0645 24.4134 32.1339 24.4827L35.1221 27.4709L36.1784 26.4145L34.4654 24.7016H48.3498V38.8952H49.8439V23.9546C49.8439 23.7564 49.7652 23.5664 49.6251 23.4263C49.485 23.2862 49.295 23.2075 49.0968 23.2075H34.4654L36.1784 21.4946L35.1221 20.4383ZM34.6843 48.8256L33.628 49.8819L35.341 51.5948H21.4566V32.919H19.9625V52.3418C19.9625 52.54 20.0412 52.73 20.1813 52.8701C20.3214 53.0102 20.5114 53.0889 20.7096 53.0889H35.341L33.628 54.8018L34.6843 55.8581L37.6725 52.87C37.7419 52.8007 37.797 52.7184 37.8346 52.6277C37.8721 52.5371 37.8915 52.44 37.8915 52.3418C37.8915 52.2437 37.8721 52.1466 37.8346 52.056C37.797 51.9653 37.7419 51.883 37.6725 51.8137L34.6843 48.8256Z" fill="url(#paint0_linear_4564_32694)" stroke="url(#paint1_linear_4564_32694)" stroke-width="0.731788"/>
<defs>
<linearGradient id="paint0_linear_4564_32694" x1="29.4249" y1="29.504" x2="53.3836" y2="36.4474" gradientUnits="userSpaceOnUse">
<stop stop-color="#B349E7"/>
<stop offset="1" stop-color="#5253B2"/>
</linearGradient>
<linearGradient id="paint1_linear_4564_32694" x1="29.4249" y1="29.504" x2="53.3836" y2="36.4474" gradientUnits="userSpaceOnUse">
<stop stop-color="#B349E7"/>
<stop offset="1" stop-color="#5253B2"/>
</linearGradient>
</defs>
</svg>
