<svg width="32" height="32" viewBox="0 0 32 32" fill="none" xmlns="http://www.w3.org/2000/svg">
<circle cx="16" cy="16" r="16" fill="url(#paint0_linear_4564_32376)"/>
<path fill-rule="evenodd" clip-rule="evenodd" d="M14.1672 12.2659C14.6064 11.1077 15.7265 10.2848 17.038 10.2848C17.8629 10.2848 18.6112 10.6101 19.1627 11.1393C19.319 11.2893 19.5659 11.2893 19.7223 11.1393C20.2738 10.6101 21.022 10.2848 21.847 10.2848C23.5419 10.2848 24.916 11.6589 24.916 13.354C24.916 14.8733 24.0204 16.3073 22.908 17.4307C21.7944 18.5553 20.4416 19.3913 19.4835 19.7097C19.4569 19.7185 19.4281 19.7185 19.4014 19.7097C18.5731 19.4344 17.4448 18.7703 16.4297 17.8611C16.4113 17.8446 16.3918 17.8301 16.3715 17.8176C16.6057 17.2192 16.7455 16.583 16.7455 15.9204C16.7455 14.2346 15.6697 12.8001 14.1672 12.2659ZM13.3763 12.076C13.9045 10.5627 15.3439 9.47656 17.038 9.47656C17.9463 9.47656 18.7821 9.78957 19.4425 10.3121C20.1028 9.78957 20.9386 9.47656 21.847 9.47656C23.9883 9.47656 25.7243 11.2126 25.7243 13.354C25.7243 15.184 24.6579 16.8122 23.4823 17.9994C22.2975 19.196 20.8394 20.1108 19.7384 20.4767C19.5463 20.5406 19.3386 20.5406 19.1465 20.4767C18.2266 20.171 17.0618 19.4838 16.0168 18.5747C15.6085 19.3226 15.0686 19.9951 14.5036 20.5658C13.3187 21.7624 11.8606 22.6772 10.7597 23.0431C10.5675 23.107 10.3599 23.107 10.1677 23.0431C9.06677 22.6772 7.60868 21.7624 6.42386 20.5658C5.24827 19.3786 4.18188 17.7504 4.18188 15.9204C4.18188 13.779 5.91781 12.043 8.0592 12.043C8.96754 12.043 9.80332 12.356 10.4637 12.8785C11.1241 12.356 11.9599 12.043 12.8682 12.043C13.0404 12.043 13.21 12.0542 13.3763 12.076ZM4.99016 15.9204C4.99016 14.2253 6.36422 12.8512 8.0592 12.8512C8.88417 12.8512 9.63242 13.1765 10.1839 13.7057C10.3403 13.8557 10.5871 13.8557 10.7435 13.7057C11.295 13.1765 12.0432 12.8512 12.8682 12.8512C14.5632 12.8512 15.9373 14.2253 15.9373 15.9204C15.9373 17.4397 15.0416 18.8737 13.9292 19.9971C12.8156 21.1217 11.4629 21.9577 10.5048 22.2761C10.4781 22.285 10.4493 22.285 10.4226 22.2761C9.46456 21.9577 8.11176 21.1217 6.9982 19.9971C5.88581 18.8737 4.99016 17.4397 4.99016 15.9204Z" fill="#F0EFF4"/>
<defs>
<linearGradient id="paint0_linear_4564_32376" x1="12.0889" y1="11.4286" x2="29.1938" y2="16.3857" gradientUnits="userSpaceOnUse">
<stop stop-color="#B349E7"/>
<stop offset="1" stop-color="#5253B2"/>
</linearGradient>
</defs>
</svg>
